<svg id="visual" viewBox="0 0 900 600" width="900" height="600" xmlns="http://www.w3.org/2000/svg" xmlns:xlink="http://www.w3.org/1999/xlink" version="1.1"><rect x="0" y="0" width="900" height="600" fill="#4DB8FF"></rect><defs><linearGradient id="grad1_0" x1="33.3%" y1="0%" x2="100%" y2="100%"><stop offset="20%" stop-color="#4db8ff" stop-opacity="1"></stop><stop offset="80%" stop-color="#4db8ff" stop-opacity="1"></stop></linearGradient></defs><defs><linearGradient id="grad2_0" x1="0%" y1="0%" x2="66.7%" y2="100%"><stop offset="20%" stop-color="#4db8ff" stop-opacity="1"></stop><stop offset="80%" stop-color="#4db8ff" stop-opacity="1"></stop></linearGradient></defs><g transform="translate(900, 0)"><path d="M0 486.7C-37 485.8 -74 484.9 -107 468.9C-140.1 453 -169.1 422 -187.4 389.2C-205.8 356.4 -213.4 321.9 -249.4 312.7C-285.4 303.6 -349.7 319.8 -380.6 303.5C-411.5 287.1 -409 238.2 -415.3 200C-421.7 161.8 -437 134.4 -450.4 102.8C-463.8 71.3 -475.3 35.6 -486.7 0L0 0Z" fill="#0099FF"></path></g><g transform="translate(0, 600)"><path d="M0 -486.7C30.9 -455.3 61.8 -423.9 94.1 -412.4C126.5 -400.9 160.4 -409.2 197 -409C233.6 -408.9 273 -400.1 303.5 -380.6C334 -361 355.5 -330.6 376.1 -299.9C396.6 -269.2 416.2 -238 424.4 -204.4C432.5 -170.7 429.2 -134.4 437.7 -99.9C446.2 -65.4 466.5 -32.7 486.7 0L0 0Z" fill="#0099FF"></path></g></svg>