<svg id="visual" viewBox="0 0 675 900" width="675" height="900" xmlns="http://www.w3.org/2000/svg" xmlns:xlink="http://www.w3.org/1999/xlink" version="1.1"><rect x="0" y="0" width="675" height="900" fill="#80CCFF"></rect><path d="M0 185L96 203L193 150L289 325L386 260L482 201L579 205L675 173L675 901L579 901L482 901L386 901L289 901L193 901L96 901L0 901Z" fill="#66c2ff"></path><path d="M0 413L96 358L193 310L289 285L386 479L482 409L579 307L675 350L675 901L579 901L482 901L386 901L289 901L193 901L96 901L0 901Z" fill="#58bbff"></path><path d="M0 534L96 560L193 542L289 340L386 444L482 429L579 504L675 349L675 901L579 901L482 901L386 901L289 901L193 901L96 901L0 901Z" fill="#4bb5ff"></path><path d="M0 519L96 540L193 505L289 580L386 465L482 517L579 604L675 455L675 901L579 901L482 901L386 901L289 901L193 901L96 901L0 901Z" fill="#3caeff"></path><path d="M0 695L96 547L193 593L289 628L386 673L482 566L579 535L675 566L675 901L579 901L482 901L386 901L289 901L193 901L96 901L0 901Z" fill="#2ca7ff"></path><path d="M0 758L96 713L193 695L289 644L386 671L482 764L579 693L675 671L675 901L579 901L482 901L386 901L289 901L193 901L96 901L0 901Z" fill="#1aa0ff"></path><path d="M0 834L96 762L193 808L289 825L386 820L482 801L579 780L675 794L675 901L579 901L482 901L386 901L289 901L193 901L96 901L0 901Z" fill="#0099ff"></path></svg>