<svg id="visual" viewBox="0 0 675 900" width="675" height="900" xmlns="http://www.w3.org/2000/svg" xmlns:xlink="http://www.w3.org/1999/xlink" version="1.1"><rect x="0" y="0" width="675" height="900" fill="#66C2FF"></rect><defs><linearGradient id="grad1_0" x1="0%" y1="0%" x2="100%" y2="100%"><stop offset="30%" stop-color="#0099ff" stop-opacity="1"></stop><stop offset="70%" stop-color="#0099ff" stop-opacity="1"></stop></linearGradient></defs><defs><linearGradient id="grad1_1" x1="0%" y1="0%" x2="100%" y2="100%"><stop offset="30%" stop-color="#0099ff" stop-opacity="1"></stop><stop offset="70%" stop-color="#3caeff" stop-opacity="1"></stop></linearGradient></defs><defs><linearGradient id="grad1_2" x1="0%" y1="0%" x2="100%" y2="100%"><stop offset="30%" stop-color="#66c2ff" stop-opacity="1"></stop><stop offset="70%" stop-color="#3caeff" stop-opacity="1"></stop></linearGradient></defs><defs><linearGradient id="grad2_0" x1="0%" y1="0%" x2="100%" y2="100%"><stop offset="30%" stop-color="#0099ff" stop-opacity="1"></stop><stop offset="70%" stop-color="#0099ff" stop-opacity="1"></stop></linearGradient></defs><defs><linearGradient id="grad2_1" x1="0%" y1="0%" x2="100%" y2="100%"><stop offset="30%" stop-color="#3caeff" stop-opacity="1"></stop><stop offset="70%" stop-color="#0099ff" stop-opacity="1"></stop></linearGradient></defs><defs><linearGradient id="grad2_2" x1="0%" y1="0%" x2="100%" y2="100%"><stop offset="30%" stop-color="#3caeff" stop-opacity="1"></stop><stop offset="70%" stop-color="#66c2ff" stop-opacity="1"></stop></linearGradient></defs><g transform="translate(675, 0)"><path d="M0 534.4C-59.1 531.2 -118.2 528 -162.5 500.3C-206.9 472.5 -236.5 420.1 -282.7 389.1C-328.9 358.1 -391.6 348.5 -432.3 314.1C-473 279.7 -491.7 220.6 -505 164.1C-518.3 107.6 -526.4 53.8 -534.4 0L0 0Z" fill="#52b8ff"></path><path d="M0 356.3C-39.4 354.1 -78.8 352 -108.4 333.5C-137.9 315 -157.7 280.1 -188.5 259.4C-219.3 238.8 -261.1 232.3 -288.2 209.4C-315.3 186.5 -327.8 147 -336.7 109.4C-345.6 71.7 -350.9 35.9 -356.2 0L0 0Z" fill="#24a4ff"></path><path d="M0 178.1C-19.7 177.1 -39.4 176 -54.2 166.8C-69 157.5 -78.8 140 -94.2 129.7C-109.6 119.4 -130.5 116.2 -144.1 104.7C-157.7 93.2 -163.9 73.5 -168.3 54.7C-172.8 35.9 -175.5 17.9 -178.1 0L0 0Z" fill="#0099ff"></path></g><g transform="translate(0, 900)"><path d="M0 -534.4C52.7 -515.4 105.4 -496.5 155.1 -477.4C204.8 -458.4 251.5 -439.2 300.9 -414.2C350.4 -389.3 402.7 -358.6 432.3 -314.1C462 -269.6 468.9 -211.3 482.2 -156.7C495.4 -102 514.9 -51 534.4 0L0 0Z" fill="#52b8ff"></path><path d="M0 -356.2C35.1 -343.6 70.3 -331 103.4 -318.3C136.5 -305.6 167.7 -292.8 200.6 -276.1C233.6 -259.5 268.5 -239.1 288.2 -209.4C308 -179.7 312.6 -140.9 321.5 -104.4C330.3 -68 343.3 -34 356.3 0L0 0Z" fill="#24a4ff"></path><path d="M0 -178.1C17.6 -171.8 35.1 -165.5 51.7 -159.1C68.3 -152.8 83.8 -146.4 100.3 -138.1C116.8 -129.8 134.2 -119.5 144.1 -104.7C154 -89.9 156.3 -70.4 160.7 -52.2C165.1 -34 171.6 -17 178.1 0L0 0Z" fill="#0099ff"></path></g></svg>