<svg id="visual" viewBox="0 0 900 600" width="900" height="600" xmlns="http://www.w3.org/2000/svg" xmlns:xlink="http://www.w3.org/1999/xlink" version="1.1"><g stroke-width="1" stroke-linejoin="bevel"><path d="M419 263L469 179L393 229Z" fill="#3caeff" stroke="#3caeff"></path><path d="M469 179L425 112L393 229Z" fill="#45b2ff" stroke="#45b2ff"></path><path d="M483 138L425 112L469 179Z" fill="#29a6ff" stroke="#29a6ff"></path><path d="M419 263L514 301L469 179Z" fill="#5ebeff" stroke="#5ebeff"></path><path d="M469 179L602 129L483 138Z" fill="#29a6ff" stroke="#29a6ff"></path><path d="M514 301L565 277L469 179Z" fill="#33aaff" stroke="#33aaff"></path><path d="M294 198L316 295L393 229Z" fill="#3caeff" stroke="#3caeff"></path><path d="M393 229L316 295L419 263Z" fill="#66c2ff" stroke="#66c2ff"></path><path d="M419 263L478 405L514 301Z" fill="#0099ff" stroke="#0099ff"></path><path d="M327 96L294 198L393 229Z" fill="#119dff" stroke="#119dff"></path><path d="M425 112L327 96L393 229Z" fill="#66c2ff" stroke="#66c2ff"></path><path d="M625 187L602 129L469 179Z" fill="#66c2ff" stroke="#66c2ff"></path><path d="M483 138L482 0L425 112Z" fill="#3caeff" stroke="#3caeff"></path><path d="M425 112L362 0L327 96Z" fill="#45b2ff" stroke="#45b2ff"></path><path d="M565 277L625 187L469 179Z" fill="#33aaff" stroke="#33aaff"></path><path d="M398 412L478 405L419 263Z" fill="#56baff" stroke="#56baff"></path><path d="M514 301L594 435L565 277Z" fill="#45b2ff" stroke="#45b2ff"></path><path d="M316 295L398 412L419 263Z" fill="#3caeff" stroke="#3caeff"></path><path d="M327 96L228 197L294 198Z" fill="#3caeff" stroke="#3caeff"></path><path d="M294 198L228 197L316 295Z" fill="#0099ff" stroke="#0099ff"></path><path d="M316 295L284 402L398 412Z" fill="#66c2ff" stroke="#66c2ff"></path><path d="M564 0L482 0L483 138Z" fill="#29a6ff" stroke="#29a6ff"></path><path d="M482 0L362 0L425 112Z" fill="#45b2ff" stroke="#45b2ff"></path><path d="M327 96L177 65L228 197Z" fill="#1ea2ff" stroke="#1ea2ff"></path><path d="M176 311L284 402L316 295Z" fill="#33aaff" stroke="#33aaff"></path><path d="M669 90L564 0L602 129Z" fill="#0099ff" stroke="#0099ff"></path><path d="M602 129L564 0L483 138Z" fill="#29a6ff" stroke="#29a6ff"></path><path d="M287 497L404 478L398 412Z" fill="#0099ff" stroke="#0099ff"></path><path d="M398 412L404 478L478 405Z" fill="#3caeff" stroke="#3caeff"></path><path d="M625 187L669 90L602 129Z" fill="#33aaff" stroke="#33aaff"></path><path d="M478 405L594 435L514 301Z" fill="#45b2ff" stroke="#45b2ff"></path><path d="M723 307L728 218L625 187Z" fill="#4db6ff" stroke="#4db6ff"></path><path d="M625 187L728 218L669 90Z" fill="#29a6ff" stroke="#29a6ff"></path><path d="M565 524L594 435L478 405Z" fill="#0099ff" stroke="#0099ff"></path><path d="M362 0L289 0L327 96Z" fill="#33aaff" stroke="#33aaff"></path><path d="M594 435L661 391L565 277Z" fill="#56baff" stroke="#56baff"></path><path d="M122 184L176 311L228 197Z" fill="#56baff" stroke="#56baff"></path><path d="M228 197L176 311L316 295Z" fill="#4db6ff" stroke="#4db6ff"></path><path d="M723 307L625 187L565 277Z" fill="#5ebeff" stroke="#5ebeff"></path><path d="M661 391L723 307L565 277Z" fill="#3caeff" stroke="#3caeff"></path><path d="M289 0L177 65L327 96Z" fill="#66c2ff" stroke="#66c2ff"></path><path d="M425 600L464 533L404 478Z" fill="#29a6ff" stroke="#29a6ff"></path><path d="M404 478L464 533L478 405Z" fill="#119dff" stroke="#119dff"></path><path d="M594 435L690 497L661 391Z" fill="#66c2ff" stroke="#66c2ff"></path><path d="M166 417L287 497L284 402Z" fill="#4db6ff" stroke="#4db6ff"></path><path d="M284 402L287 497L398 412Z" fill="#119dff" stroke="#119dff"></path><path d="M799 0L674 0L669 90Z" fill="#56baff" stroke="#56baff"></path><path d="M669 90L674 0L564 0Z" fill="#4db6ff" stroke="#4db6ff"></path><path d="M289 0L208 0L177 65Z" fill="#3caeff" stroke="#3caeff"></path><path d="M177 65L122 184L228 197Z" fill="#1ea2ff" stroke="#1ea2ff"></path><path d="M464 533L565 524L478 405Z" fill="#56baff" stroke="#56baff"></path><path d="M824 396L800 264L723 307Z" fill="#33aaff" stroke="#33aaff"></path><path d="M99 400L166 417L176 311Z" fill="#1ea2ff" stroke="#1ea2ff"></path><path d="M176 311L166 417L284 402Z" fill="#66c2ff" stroke="#66c2ff"></path><path d="M800 264L779 192L728 218Z" fill="#1ea2ff" stroke="#1ea2ff"></path><path d="M728 218L779 192L669 90Z" fill="#56baff" stroke="#56baff"></path><path d="M177 65L107 91L122 184Z" fill="#56baff" stroke="#56baff"></path><path d="M64 0L107 91L177 65Z" fill="#1ea2ff" stroke="#1ea2ff"></path><path d="M122 184L94 320L176 311Z" fill="#0099ff" stroke="#0099ff"></path><path d="M0 297L94 320L122 184Z" fill="#33aaff" stroke="#33aaff"></path><path d="M723 307L800 264L728 218Z" fill="#119dff" stroke="#119dff"></path><path d="M824 396L723 307L661 391Z" fill="#4db6ff" stroke="#4db6ff"></path><path d="M565 524L690 497L594 435Z" fill="#3caeff" stroke="#3caeff"></path><path d="M166 417L218 528L287 497Z" fill="#66c2ff" stroke="#66c2ff"></path><path d="M303 600L425 600L404 478Z" fill="#45b2ff" stroke="#45b2ff"></path><path d="M129 496L218 528L166 417Z" fill="#45b2ff" stroke="#45b2ff"></path><path d="M464 533L510 600L565 524Z" fill="#3caeff" stroke="#3caeff"></path><path d="M565 524L635 600L690 497Z" fill="#66c2ff" stroke="#66c2ff"></path><path d="M303 600L404 478L287 497Z" fill="#29a6ff" stroke="#29a6ff"></path><path d="M94 320L99 400L176 311Z" fill="#119dff" stroke="#119dff"></path><path d="M425 600L510 600L464 533Z" fill="#66c2ff" stroke="#66c2ff"></path><path d="M218 528L303 600L287 497Z" fill="#56baff" stroke="#56baff"></path><path d="M779 192L836 102L669 90Z" fill="#4db6ff" stroke="#4db6ff"></path><path d="M900 204L836 102L779 192Z" fill="#0099ff" stroke="#0099ff"></path><path d="M99 400L129 496L166 417Z" fill="#3caeff" stroke="#3caeff"></path><path d="M218 528L236 600L303 600Z" fill="#119dff" stroke="#119dff"></path><path d="M836 102L799 0L669 90Z" fill="#5ebeff" stroke="#5ebeff"></path><path d="M690 497L824 396L661 391Z" fill="#33aaff" stroke="#33aaff"></path><path d="M800 264L900 204L779 192Z" fill="#5ebeff" stroke="#5ebeff"></path><path d="M510 600L635 600L565 524Z" fill="#119dff" stroke="#119dff"></path><path d="M690 497L789 530L824 396Z" fill="#66c2ff" stroke="#66c2ff"></path><path d="M63 600L236 600L218 528Z" fill="#1ea2ff" stroke="#1ea2ff"></path><path d="M208 0L64 0L177 65Z" fill="#3caeff" stroke="#3caeff"></path><path d="M0 109L0 186L122 184Z" fill="#33aaff" stroke="#33aaff"></path><path d="M94 320L0 395L99 400Z" fill="#66c2ff" stroke="#66c2ff"></path><path d="M0 109L122 184L107 91Z" fill="#33aaff" stroke="#33aaff"></path><path d="M99 400L0 513L129 496Z" fill="#45b2ff" stroke="#45b2ff"></path><path d="M0 186L0 297L122 184Z" fill="#0099ff" stroke="#0099ff"></path><path d="M64 0L0 109L107 91Z" fill="#66c2ff" stroke="#66c2ff"></path><path d="M900 327L900 204L800 264Z" fill="#0099ff" stroke="#0099ff"></path><path d="M836 102L900 0L799 0Z" fill="#0099ff" stroke="#0099ff"></path><path d="M714 600L789 530L690 497Z" fill="#119dff" stroke="#119dff"></path><path d="M824 396L900 327L800 264Z" fill="#66c2ff" stroke="#66c2ff"></path><path d="M635 600L714 600L690 497Z" fill="#1ea2ff" stroke="#1ea2ff"></path><path d="M900 204L900 124L836 102Z" fill="#5ebeff" stroke="#5ebeff"></path><path d="M900 370L900 327L824 396Z" fill="#5ebeff" stroke="#5ebeff"></path><path d="M0 297L0 395L94 320Z" fill="#66c2ff" stroke="#66c2ff"></path><path d="M129 496L63 600L218 528Z" fill="#3caeff" stroke="#3caeff"></path><path d="M900 492L900 370L824 396Z" fill="#0099ff" stroke="#0099ff"></path><path d="M64 0L0 0L0 109Z" fill="#0099ff" stroke="#0099ff"></path><path d="M714 600L768 600L789 530Z" fill="#56baff" stroke="#56baff"></path><path d="M789 530L900 492L824 396Z" fill="#0099ff" stroke="#0099ff"></path><path d="M900 124L900 0L836 102Z" fill="#56baff" stroke="#56baff"></path><path d="M0 395L0 513L99 400Z" fill="#0099ff" stroke="#0099ff"></path><path d="M900 600L900 492L789 530Z" fill="#0099ff" stroke="#0099ff"></path><path d="M0 513L63 600L129 496Z" fill="#3caeff" stroke="#3caeff"></path><path d="M0 513L0 600L63 600Z" fill="#0099ff" stroke="#0099ff"></path><path d="M768 600L900 600L789 530Z" fill="#0099ff" stroke="#0099ff"></path></g></svg>