<svg width="24" height="20" viewBox="0 0 24 20" fill="none" xmlns="http://www.w3.org/2000/svg">
<g id="PhTrash(1) 1">
<path id="Vector" d="M20.25 3.5H16.5V2.75C16.5 2.15326 16.2629 1.58097 15.841 1.15901C15.419 0.737053 14.8467 0.5 14.25 0.5H9.75C9.15326 0.5 8.58097 0.737053 8.15901 1.15901C7.73705 1.58097 7.5 2.15326 7.5 2.75V3.5H3.75C3.55109 3.5 3.36032 3.57902 3.21967 3.71967C3.07902 3.86032 3 4.05109 3 4.25C3 4.44891 3.07902 4.63968 3.21967 4.78033C3.36032 4.92098 3.55109 5 3.75 5H4.5V18.5C4.5 18.8978 4.65804 19.2794 4.93934 19.5607C5.22064 19.842 5.60218 20 6 20H18C18.3978 20 18.7794 19.842 19.0607 19.5607C19.342 19.2794 19.5 18.8978 19.5 18.5V5H20.25C20.4489 5 20.6397 4.92098 20.7803 4.78033C20.921 4.63968 21 4.44891 21 4.25C21 4.05109 20.921 3.86032 20.7803 3.71967C20.6397 3.57902 20.4489 3.5 20.25 3.5ZM9 2.75C9 2.55109 9.07902 2.36032 9.21967 2.21967C9.36032 2.07902 9.55109 2 9.75 2H14.25C14.4489 2 14.6397 2.07902 14.7803 2.21967C14.921 2.36032 15 2.55109 15 2.75V3.5H9V2.75ZM18 18.5H6V5H18V18.5ZM10.5 8.75V14.75C10.5 14.9489 10.421 15.1397 10.2803 15.2803C10.1397 15.421 9.94891 15.5 9.75 15.5C9.55109 15.5 9.36032 15.421 9.21967 15.2803C9.07902 15.1397 9 14.9489 9 14.75V8.75C9 8.55109 9.07902 8.36032 9.21967 8.21967C9.36032 8.07902 9.55109 8 9.75 8C9.94891 8 10.1397 8.07902 10.2803 8.21967C10.421 8.36032 10.5 8.55109 10.5 8.75ZM15 8.75V14.75C15 14.9489 14.921 15.1397 14.7803 15.2803C14.6397 15.421 14.4489 15.5 14.25 15.5C14.0511 15.5 13.8603 15.421 13.7197 15.2803C13.579 15.1397 13.5 14.9489 13.5 14.75V8.75C13.5 8.55109 13.579 8.36032 13.7197 8.21967C13.8603 8.07902 14.0511 8 14.25 8C14.4489 8 14.6397 8.07902 14.7803 8.21967C14.921 8.36032 15 8.55109 15 8.75Z" fill="#FF3D00"/>
</g>
</svg>
