<svg width="18" height="22" viewBox="0 0 18 22" fill="none" xmlns="http://www.w3.org/2000/svg">
<g id="PhTrash 1" clip-path="url(#clip0_275_51)">
<rect width="18" height="21" transform="translate(0 0.5)" fill="white"/>
<path id="Vector" d="M17.25 5H13.5V4.25C13.5 3.65326 13.2629 3.08097 12.841 2.65901C12.419 2.23705 11.8467 2 11.25 2H6.75C6.15326 2 5.58097 2.23705 5.15901 2.65901C4.73705 3.08097 4.5 3.65326 4.5 4.25V5H0.75C0.551088 5 0.360322 5.07902 0.21967 5.21967C0.0790178 5.36032 0 5.55109 0 5.75C0 5.94891 0.0790178 6.13968 0.21967 6.28033C0.360322 6.42098 0.551088 6.5 0.75 6.5H1.5V20C1.5 20.3978 1.65804 20.7794 1.93934 21.0607C2.22064 21.342 2.60218 21.5 3 21.5H15C15.3978 21.5 15.7794 21.342 16.0607 21.0607C16.342 20.7794 16.5 20.3978 16.5 20V6.5H17.25C17.4489 6.5 17.6397 6.42098 17.7803 6.28033C17.921 6.13968 18 5.94891 18 5.75C18 5.55109 17.921 5.36032 17.7803 5.21967C17.6397 5.07902 17.4489 5 17.25 5ZM6 4.25C6 4.05109 6.07902 3.86032 6.21967 3.71967C6.36032 3.57902 6.55109 3.5 6.75 3.5H11.25C11.4489 3.5 11.6397 3.57902 11.7803 3.71967C11.921 3.86032 12 4.05109 12 4.25V5H6V4.25ZM15 20H3V6.5H15V20ZM7.5 10.25V16.25C7.5 16.4489 7.42098 16.6397 7.28033 16.7803C7.13968 16.921 6.94891 17 6.75 17C6.55109 17 6.36032 16.921 6.21967 16.7803C6.07902 16.6397 6 16.4489 6 16.25V10.25C6 10.0511 6.07902 9.86032 6.21967 9.71967C6.36032 9.57902 6.55109 9.5 6.75 9.5C6.94891 9.5 7.13968 9.57902 7.28033 9.71967C7.42098 9.86032 7.5 10.0511 7.5 10.25ZM12 10.25V16.25C12 16.4489 11.921 16.6397 11.7803 16.7803C11.6397 16.921 11.4489 17 11.25 17C11.0511 17 10.8603 16.921 10.7197 16.7803C10.579 16.6397 10.5 16.4489 10.5 16.25V10.25C10.5 10.0511 10.579 9.86032 10.7197 9.71967C10.8603 9.57902 11.0511 9.5 11.25 9.5C11.4489 9.5 11.6397 9.57902 11.7803 9.71967C11.921 9.86032 12 10.0511 12 10.25Z" fill="#666666"/>
</g>
<defs>
<clipPath id="clip0_275_51">
<rect width="18" height="21" fill="white" transform="translate(0 0.5)"/>
</clipPath>
</defs>
</svg>
