<svg width="52" height="52" viewBox="0 0 52 52" fill="none" xmlns="http://www.w3.org/2000/svg">
<g id="PhCheckCircleFill 1" clip-path="url(#clip0_9_83)">
<path id="Vector" d="M26 0C20.8577 0 15.8309 1.52487 11.5552 4.38179C7.27951 7.23871 3.94702 11.2994 1.97914 16.0502C0.0112654 20.8011 -0.503621 26.0288 0.499594 31.0723C1.50281 36.1159 3.97907 40.7486 7.61524 44.3848C11.2514 48.0209 15.8842 50.4972 20.9277 51.5004C25.9712 52.5036 31.1989 51.9887 35.9498 50.0209C40.7007 48.053 44.7613 44.7205 47.6182 40.4448C50.4751 36.1691 52 31.1423 52 26C51.9927 19.1066 49.2511 12.4976 44.3767 7.62326C39.5024 2.74889 32.8934 0.00727955 26 0ZM37.415 21.415L23.415 35.415C23.2293 35.601 23.0087 35.7485 22.7659 35.8491C22.5231 35.9498 22.2628 36.0016 22 36.0016C21.7372 36.0016 21.4769 35.9498 21.2341 35.8491C20.9913 35.7485 20.7708 35.601 20.585 35.415L14.585 29.415C14.2097 29.0397 13.9989 28.5307 13.9989 28C13.9989 27.4693 14.2097 26.9603 14.585 26.585C14.9603 26.2097 15.4693 25.9989 16 25.9989C16.5307 25.9989 17.0397 26.2097 17.415 26.585L22 31.1725L34.585 18.585C34.7708 18.3992 34.9914 18.2518 35.2342 18.1512C35.477 18.0506 35.7372 17.9989 36 17.9989C36.2628 17.9989 36.523 18.0506 36.7658 18.1512C37.0086 18.2518 37.2292 18.3992 37.415 18.585C37.6008 18.7708 37.7482 18.9914 37.8488 19.2342C37.9494 19.477 38.0011 19.7372 38.0011 20C38.0011 20.2628 37.9494 20.523 37.8488 20.7658C37.7482 21.0086 37.6008 21.2292 37.415 21.415Z" fill="#0099FF"/>
</g>
<defs>
<clipPath id="clip0_9_83">
<rect width="52" height="52" fill="white"/>
</clipPath>
</defs>
</svg>
