<svg width="52" height="52" viewBox="0 0 52 52" fill="none" xmlns="http://www.w3.org/2000/svg">
<g clip-path="url(#clip0_7_183)">
<path d="M37.415 18.585C37.601 18.7707 37.7485 18.9913 37.8491 19.2341C37.9498 19.4769 38.0016 19.7372 38.0016 20C38.0016 20.2628 37.9498 20.5231 37.8491 20.7659C37.7485 21.0087 37.601 21.2293 37.415 21.415L23.415 35.415C23.2293 35.601 23.0087 35.7485 22.7659 35.8491C22.5231 35.9498 22.2628 36.0016 22 36.0016C21.7372 36.0016 21.4769 35.9498 21.2341 35.8491C20.9913 35.7485 20.7708 35.601 20.585 35.415L14.585 29.415C14.2097 29.0397 13.9989 28.5307 13.9989 28C13.9989 27.4693 14.2097 26.9603 14.585 26.585C14.9603 26.2097 15.4693 25.9989 16 25.9989C16.5307 25.9989 17.0397 26.2097 17.415 26.585L22 31.1725L34.585 18.585C34.7708 18.399 34.9913 18.2515 35.2341 18.1509C35.4769 18.0502 35.7372 17.9984 36 17.9984C36.2628 17.9984 36.5231 18.0502 36.7659 18.1509C37.0087 18.2515 37.2293 18.399 37.415 18.585ZM52 26C52 31.1423 50.4751 36.1691 47.6182 40.4448C44.7613 44.7205 40.7007 48.053 35.9498 50.0209C31.1989 51.9887 25.9712 52.5036 20.9277 51.5004C15.8842 50.4972 11.2514 48.0209 7.61524 44.3848C3.97907 40.7486 1.50281 36.1159 0.499594 31.0723C-0.503621 26.0288 0.0112654 20.8011 1.97914 16.0502C3.94702 11.2994 7.27951 7.23871 11.5552 4.38179C15.8309 1.52487 20.8577 0 26 0C32.8934 0.00727955 39.5024 2.74889 44.3767 7.62326C49.2511 12.4976 51.9927 19.1066 52 26ZM48 26C48 21.6488 46.7097 17.3953 44.2923 13.7775C41.875 10.1596 38.439 7.33978 34.419 5.67465C30.3991 4.00952 25.9756 3.57385 21.708 4.42272C17.4404 5.2716 13.5204 7.3669 10.4437 10.4437C7.36691 13.5204 5.27161 17.4404 4.42274 21.708C3.57386 25.9756 4.00953 30.3991 5.67466 34.419C7.33979 38.439 10.1596 41.8749 13.7775 44.2923C17.3953 46.7097 21.6488 48 26 48C31.8327 47.9934 37.4247 45.6734 41.5491 41.549C45.6734 37.4247 47.9934 31.8327 48 26Z" fill="#333333"/>
</g>
<defs>
<clipPath id="clip0_7_183">
<rect width="52" height="52" fill="white"/>
</clipPath>
</defs>
</svg>
