<svg width="52" height="52" viewBox="0 0 52 52" fill="none" xmlns="http://www.w3.org/2000/svg">
<g id="PhClockFill 1" clip-path="url(#clip0_7_109)">
<path id="Vector" d="M26 0C20.8577 0 15.8309 1.52487 11.5552 4.38179C7.27951 7.23871 3.94702 11.2994 1.97914 16.0502C0.0112654 20.8011 -0.503621 26.0288 0.499594 31.0723C1.50281 36.1159 3.97907 40.7486 7.61524 44.3848C11.2514 48.0209 15.8842 50.4972 20.9277 51.5004C25.9712 52.5036 31.1989 51.9887 35.9498 50.0209C40.7007 48.053 44.7613 44.7205 47.6182 40.4448C50.4751 36.1691 52 31.1423 52 26C51.9927 19.1066 49.2511 12.4976 44.3767 7.62326C39.5024 2.74889 32.8934 0.00727955 26 0ZM40 28H26C25.4696 28 24.9609 27.7893 24.5858 27.4142C24.2107 27.0391 24 26.5304 24 26V12C24 11.4696 24.2107 10.9609 24.5858 10.5858C24.9609 10.2107 25.4696 10 26 10C26.5304 10 27.0392 10.2107 27.4142 10.5858C27.7893 10.9609 28 11.4696 28 12V24H40C40.5304 24 41.0392 24.2107 41.4142 24.5858C41.7893 24.9609 42 25.4696 42 26C42 26.5304 41.7893 27.0391 41.4142 27.4142C41.0392 27.7893 40.5304 28 40 28Z" fill="#0099FF"/>
</g>
<defs>
<clipPath id="clip0_7_109">
<rect width="52" height="52" fill="white"/>
</clipPath>
</defs>
</svg>
