<svg width="16" height="15" viewBox="0 0 16 15" fill="none" xmlns="http://www.w3.org/2000/svg">
<path d="M15.4595 3.72426L12.2757 0.540533C11.9296 0.194434 11.4602 0 10.9707 0C10.4812 0 10.0118 0.194434 9.66569 0.540533L0.540533 9.66569C0.194434 10.0118 0 10.4812 0 10.9707C0 11.4602 0.194434 11.9296 0.540533 12.2757L2.8522 14.5874C2.90956 14.6447 2.97768 14.6901 3.05264 14.721C3.1276 14.7519 3.20793 14.7676 3.289 14.7674H14.7674C14.9305 14.7674 15.087 14.7025 15.2024 14.5872C15.3177 14.4718 15.3826 14.3153 15.3826 14.1521C15.3826 13.989 15.3177 13.8325 15.2024 13.7171C15.087 13.6017 14.9305 13.5369 14.7674 13.5369H8.25378L15.4595 6.33431C15.8056 5.98819 16 5.51876 16 5.02929C16 4.53981 15.8056 4.07039 15.4595 3.72426ZM14.5882 5.46224L10.4609 9.5911L6.4089 5.53915L10.5378 1.4126C10.5949 1.3554 10.6627 1.31002 10.7374 1.27906C10.8121 1.2481 10.8922 1.23216 10.973 1.23216C11.0539 1.23216 11.1339 1.2481 11.2086 1.27906C11.2833 1.31002 11.3511 1.3554 11.4083 1.4126L14.5905 4.59479C14.7058 4.71016 14.7705 4.86658 14.7705 5.02967C14.7705 5.19277 14.7058 5.34919 14.5905 5.46455L14.5882 5.46224Z" fill="#FF0000"/>
</svg>
