<svg width="27" height="32" viewBox="0 0 27 32" fill="none" xmlns="http://www.w3.org/2000/svg">
<path opacity="0.2" d="M24.889 4.74074V29.6298C24.889 29.9441 24.7642 30.2456 24.5419 30.4678C24.3196 30.6901 24.0182 30.815 23.7039 30.815H2.37037C2.05604 30.815 1.75458 30.6901 1.53232 30.4678C1.31005 30.2456 1.18518 29.9441 1.18518 29.6298V4.74074C1.18518 4.4264 1.31005 4.12494 1.53232 3.90268C1.75458 3.68041 2.05604 3.55554 2.37037 3.55554H8.29634C7.52538 4.58045 7.10932 5.82862 7.11115 7.11112V8.29631H18.9631V7.11112C18.9649 5.82862 18.5488 4.58045 17.7779 3.55554H23.7039C24.0182 3.55554 24.3196 3.68041 24.5419 3.90268C24.7642 4.12494 24.889 4.4264 24.889 4.74074Z" fill="#999999"/>
<path d="M18.9631 20.1483C18.9631 20.4626 18.8382 20.764 18.616 20.9863C18.3937 21.2086 18.0922 21.3334 17.7779 21.3334H8.29635C7.98202 21.3334 7.68056 21.2086 7.45829 20.9863C7.23603 20.764 7.11116 20.4626 7.11116 20.1483C7.11116 19.8339 7.23603 19.5325 7.45829 19.3102C7.68056 19.0879 7.98202 18.9631 8.29635 18.9631H17.7779C18.0922 18.9631 18.3937 19.0879 18.616 19.3102C18.8382 19.5325 18.9631 19.8339 18.9631 20.1483ZM17.7779 14.2223H8.29635C7.98202 14.2223 7.68056 14.3472 7.45829 14.5694C7.23603 14.7917 7.11116 15.0931 7.11116 15.4075C7.11116 15.7218 7.23603 16.0233 7.45829 16.2455C7.68056 16.4678 7.98202 16.5927 8.29635 16.5927H17.7779C18.0922 16.5927 18.3937 16.4678 18.616 16.2455C18.8382 16.0233 18.9631 15.7218 18.9631 15.4075C18.9631 15.0931 18.8382 14.7917 18.616 14.5694C18.3937 14.3472 18.0922 14.2223 17.7779 14.2223ZM26.0742 4.74074V29.6298C26.0742 30.2585 25.8245 30.8614 25.38 31.3059C24.9354 31.7504 24.3325 32.0002 23.7039 32.0002H2.37039C1.74172 32.0002 1.1388 31.7504 0.69427 31.3059C0.249736 30.8614 0 30.2585 0 29.6298V4.74074C0 4.11208 0.249736 3.50916 0.69427 3.06462C1.1388 2.62009 1.74172 2.37035 2.37039 2.37035H7.74227C8.40821 1.62476 9.22411 1.02821 10.1366 0.619763C11.049 0.211317 12.0374 0.000183105 13.0371 0.000183105C14.0368 0.000183105 15.0252 0.211317 15.9377 0.619763C16.8501 1.02821 17.666 1.62476 18.332 2.37035H23.7039C24.3325 2.37035 24.9354 2.62009 25.38 3.06462C25.8245 3.50916 26.0742 4.11208 26.0742 4.74074ZM8.29635 7.11113H17.7779C17.7779 5.8538 17.2784 4.64796 16.3894 3.75889C15.5003 2.86983 14.2945 2.37035 13.0371 2.37035C11.7798 2.37035 10.574 2.86983 9.68489 3.75889C8.79582 4.64796 8.29635 5.8538 8.29635 7.11113ZM23.7039 4.74074H19.7409C20.0105 5.50196 20.1483 6.30358 20.1483 7.11113V8.29632C20.1483 8.61065 20.0234 8.91211 19.8011 9.13438C19.5789 9.35665 19.2774 9.48151 18.9631 9.48151H7.11116C6.79683 9.48151 6.49537 9.35665 6.2731 9.13438C6.05083 8.91211 5.92597 8.61065 5.92597 8.29632V7.11113C5.92599 6.30358 6.06377 5.50196 6.33338 4.74074H2.37039V29.6298H23.7039V4.74074Z" fill="#999999"/>
</svg>
