<svg width="14" height="8" viewBox="0 0 14 8" fill="none" xmlns="http://www.w3.org/2000/svg">
<g id="PhCaretDownFill 2" clip-path="url(#clip0_85_23)">
<path id="Vector" d="M13.3585 1.05077L7.20461 7.20462C7.14746 7.26183 7.07959 7.30722 7.00488 7.33819C6.93018 7.36916 6.8501 7.3851 6.76923 7.3851C6.68836 7.3851 6.60828 7.36916 6.53357 7.33819C6.45887 7.30722 6.391 7.26183 6.33384 7.20462L0.179996 1.05077C0.0938355 0.964705 0.0351478 0.85501 0.011363 0.735574C-0.0124219 0.616137 -0.000234439 0.492328 0.0463825 0.379821C0.0929994 0.267315 0.17195 0.17117 0.273238 0.103557C0.374527 0.0359441 0.493599 -9.56477e-05 0.615381 1.90647e-07H12.9231C13.0449 -9.56477e-05 13.1639 0.0359441 13.2652 0.103557C13.3665 0.17117 13.4455 0.267315 13.4921 0.379821C13.5387 0.492328 13.5509 0.616137 13.5271 0.735574C13.5033 0.85501 13.4446 0.964705 13.3585 1.05077Z" fill="#999999"/>
</g>
<defs>
<clipPath id="clip0_85_23">
<rect width="13.5385" height="8" fill="white"/>
</clipPath>
</defs>
</svg>
