<svg width="23" height="13" viewBox="0 0 23 13" fill="none" xmlns="http://www.w3.org/2000/svg">
<path id="Vector" d="M22.5651 2.56635L12.5651 12.5664C12.4257 12.7062 12.2602 12.8171 12.0778 12.8929C11.8955 12.9686 11.7 13.0075 11.5026 13.0075C11.3052 13.0075 11.1097 12.9686 10.9274 12.8929C10.745 12.8171 10.5795 12.7062 10.4401 12.5664L0.440102 2.56635C0.15831 2.28456 -4.19903e-09 1.90237 0 1.50385C4.19904e-09 1.10534 0.15831 0.723144 0.440102 0.441352C0.721895 0.159559 1.10409 0.00125027 1.5026 0.00125027C1.90112 0.00125026 2.28331 0.159559 2.5651 0.441352L11.5039 9.3801L20.4426 0.440103C20.7244 0.15831 21.1066 0 21.5051 0C21.9036 0 22.2858 0.15831 22.5676 0.440103C22.8494 0.721895 23.0077 1.10409 23.0077 1.5026C23.0077 1.90112 22.8494 2.28331 22.5676 2.5651L22.5651 2.56635Z" fill="#333333"/>
</svg>
