<svg width="20" height="24" viewBox="0 0 20 24" fill="none" xmlns="http://www.w3.org/2000/svg">
<g clip-path="url(#clip0_52_136)">
<path d="M15.0443 15.8451C14.779 16.6886 14.3139 17.4556 13.6886 18.0809C13.0633 18.7062 12.2963 19.1713 11.4528 19.4366C11.3296 19.4749 11.2015 19.4945 11.0725 19.4947C10.7695 19.4949 10.4764 19.3866 10.2464 19.1893C10.0164 18.9921 9.86463 18.719 9.81866 18.4195C9.77268 18.12 9.83551 17.8139 9.99576 17.5567C10.156 17.2995 10.4031 17.1083 10.6922 17.0176C11.1468 16.8748 11.5602 16.6242 11.8971 16.2873C12.2341 15.9504 12.4846 15.537 12.6274 15.0824C12.6774 14.9236 12.7581 14.7761 12.865 14.6485C12.9719 14.5208 13.103 14.4155 13.2506 14.3385C13.5487 14.183 13.8964 14.1523 14.2172 14.2532C14.3761 14.3031 14.5235 14.3838 14.6511 14.4908C14.7788 14.5977 14.8841 14.7287 14.9611 14.8763C15.0381 15.0239 15.0853 15.1853 15.0999 15.3512C15.1146 15.517 15.0964 15.6841 15.0464 15.843L15.0443 15.8451ZM19.5211 14.1972C19.5211 16.7746 18.4972 19.2465 16.6747 21.0691C14.8521 22.8916 12.3802 23.9155 9.80278 23.9155C7.22533 23.9155 4.75344 22.8916 2.9309 21.0691C1.10836 19.2465 0.0844727 16.7746 0.0844727 14.1972C0.0844727 11.1539 1.27497 8.05141 3.62109 4.97746C3.72977 4.83503 3.8674 4.71724 4.02492 4.63188C4.18244 4.54652 4.35627 4.49552 4.53494 4.48225C4.71361 4.46897 4.89306 4.49372 5.06147 4.55487C5.22987 4.61601 5.3834 4.71216 5.51194 4.83697L7.59187 6.85563L9.69715 1.08697C9.76676 0.896106 9.88123 0.724771 10.0309 0.5874C10.1806 0.450029 10.3611 0.350648 10.5572 0.297631C10.7533 0.244614 10.9593 0.239513 11.1578 0.282759C11.3564 0.326005 11.5416 0.416331 11.6979 0.546126C14.0493 2.49824 19.5211 7.73767 19.5211 14.1972ZM16.9859 14.1972C16.9859 9.7912 13.7524 5.91655 11.438 3.7088L9.30313 9.56091C9.23068 9.75956 9.10968 9.93693 8.95115 10.0769C8.79263 10.2168 8.60162 10.3148 8.39552 10.3621C8.18941 10.4093 7.97477 10.4043 7.77112 10.3474C7.56747 10.2905 7.3813 10.1835 7.22954 10.0363L4.80736 7.68591C3.35912 9.90634 2.61968 12.0908 2.61968 14.1972C2.61968 16.1023 3.37647 17.9293 4.72357 19.2764C6.07066 20.6235 7.89771 21.3803 9.80278 21.3803C11.7079 21.3803 13.5349 20.6235 14.882 19.2764C16.2291 17.9293 16.9859 16.1023 16.9859 14.1972Z" fill="#FF2E00"/>
</g>
<defs>
<clipPath id="clip0_52_136">
<rect width="19.6056" height="24" fill="white"/>
</clipPath>
</defs>
</svg>
