<svg width="32" height="32" viewBox="0 0 32 32" fill="none" xmlns="http://www.w3.org/2000/svg">
<path opacity="0.2" d="M30.7692 16C30.7692 18.9211 29.903 21.7766 28.2801 24.2053C26.6572 26.6341 24.3506 28.5271 21.6519 29.645C18.9532 30.7628 15.9836 31.0553 13.1186 30.4854C10.2537 29.9156 7.62204 28.5089 5.55653 26.4434C3.49101 24.3779 2.08438 21.7463 1.51451 18.8813C0.944632 16.0164 1.23711 13.0468 2.35496 10.3481C3.47281 7.64934 5.36582 5.3427 7.7946 3.71984C10.2234 2.09697 13.0789 1.23077 15.9999 1.23077C19.917 1.23077 23.6736 2.78681 26.4434 5.55658C29.2131 8.32635 30.7692 12.083 30.7692 16Z" fill="#00B232"/>
<path d="M23.0246 11.4369C23.139 11.5512 23.2298 11.687 23.2918 11.8364C23.3537 11.9858 23.3856 12.1459 23.3856 12.3077C23.3856 12.4694 23.3537 12.6296 23.2918 12.779C23.2298 12.9284 23.139 13.0642 23.0246 13.1785L14.4092 21.7938C14.2949 21.9083 14.1592 21.9991 14.0098 22.061C13.8604 22.1229 13.7002 22.1548 13.5385 22.1548C13.3767 22.1548 13.2166 22.1229 13.0672 22.061C12.9177 21.9991 12.782 21.9083 12.6677 21.7938L8.97539 18.1015C8.74445 17.8706 8.61471 17.5574 8.61471 17.2308C8.61471 16.9042 8.74445 16.5909 8.97539 16.36C9.20633 16.1291 9.51956 15.9993 9.84616 15.9993C10.1728 15.9993 10.486 16.1291 10.7169 16.36L13.5385 19.1831L21.2831 11.4369C21.3974 11.3225 21.5331 11.2317 21.6825 11.1698C21.8319 11.1078 21.9921 11.076 22.1538 11.076C22.3156 11.076 22.4757 11.1078 22.6252 11.1698C22.7746 11.2317 22.9103 11.3225 23.0246 11.4369ZM32 16C32 19.1645 31.0616 22.2579 29.3035 24.8891C27.5454 27.5203 25.0466 29.5711 22.1229 30.7821C19.1993 31.9931 15.9823 32.3099 12.8786 31.6926C9.77486 31.0752 6.92394 29.5513 4.6863 27.3137C2.44866 25.0761 0.924806 22.2251 0.307443 19.1214C-0.309921 16.0177 0.00693255 12.8007 1.21793 9.87706C2.42894 6.95345 4.4797 4.45459 7.11088 2.69649C9.74207 0.938383 12.8355 0 16 0C20.2421 0.00447972 24.3091 1.69163 27.3088 4.69124C30.3084 7.69085 31.9955 11.7579 32 16ZM29.5385 16C29.5385 13.3223 28.7444 10.7048 27.2568 8.47843C25.7692 6.25204 23.6548 4.51679 21.1809 3.49209C18.7071 2.4674 15.985 2.19929 13.3588 2.72168C10.7326 3.24406 8.32026 4.53347 6.42687 6.42686C4.53348 8.32025 3.24407 10.7326 2.72168 13.3588C2.1993 15.985 2.4674 18.7071 3.4921 21.1809C4.51679 23.6548 6.25205 25.7692 8.47844 27.2568C10.7048 28.7444 13.3223 29.5385 16 29.5385C19.5894 29.5344 23.0306 28.1067 25.5686 25.5686C28.1067 23.0306 29.5344 19.5894 29.5385 16Z" fill="#00B232"/>
</svg>
