<svg width="24" height="24" viewBox="0 0 24 24" fill="none" xmlns="http://www.w3.org/2000/svg">
<g id="PhMagnifyingGlass 1" clip-path="url(#clip0_275_63)">
<path id="Vector" d="M23.7296 22.4239L17.9523 16.6477C19.6268 14.6374 20.4618 12.0588 20.2836 9.44855C20.1054 6.83825 18.9277 4.39715 16.9955 2.63305C15.0633 0.868954 12.5254 -0.0823161 9.90967 -0.0228701C7.29397 0.0365759 4.80189 1.10216 2.95183 2.95222C1.10178 4.80227 0.0361944 7.29435 -0.0232516 9.91005C-0.0826976 12.5257 0.868572 15.0637 2.63267 16.9959C4.39677 18.9281 6.83787 20.1058 9.44816 20.284C12.0585 20.4622 14.637 19.6272 16.6473 17.9527L22.4235 23.73C22.5092 23.8158 22.6111 23.8838 22.7231 23.9302C22.8352 23.9766 22.9553 24.0005 23.0765 24.0005C23.1978 24.0005 23.3179 23.9766 23.43 23.9302C23.542 23.8838 23.6439 23.8158 23.7296 23.73C23.8154 23.6442 23.8834 23.5424 23.9298 23.4304C23.9762 23.3183 24.0001 23.1982 24.0001 23.0769C24.0001 22.9556 23.9762 22.8355 23.9298 22.7235C23.8834 22.6114 23.8154 22.5096 23.7296 22.4239ZM1.84578 10.1539C1.84578 8.51075 2.33302 6.90454 3.24588 5.53835C4.15874 4.17215 5.45622 3.10734 6.97425 2.47855C8.49229 1.84976 10.1627 1.68524 11.7742 2.00579C13.3858 2.32634 14.866 3.11757 16.0279 4.27943C17.1897 5.44128 17.981 6.92157 18.3015 8.5331C18.6221 10.1446 18.4576 11.815 17.8288 13.3331C17.2 14.8511 16.1352 16.1486 14.769 17.0614C13.4028 17.9743 11.7966 18.4615 10.1535 18.4615C7.95088 18.4591 5.83921 17.583 4.28174 16.0256C2.72428 14.4681 1.84822 12.3564 1.84578 10.1539Z" fill="#0099FF"/>
</g>
<defs>
<clipPath id="clip0_275_63">
<rect width="24" height="24" fill="white"/>
</clipPath>
</defs>
</svg>
