<svg width="55" height="55" viewBox="0 0 55 55" fill="none" xmlns="http://www.w3.org/2000/svg">
<g id="PhMoonFill 2" clip-path="url(#clip0_7_199)">
<path id="Vector" d="M21.9243 11.0334C25.2828 10.26 28.7997 10.5655 31.9745 11.9066C34.7542 13.0884 37.1495 15.0215 38.8915 17.4891C40.6335 19.9566 41.6533 22.8608 41.8365 25.8757C42.0196 28.8906 41.3589 31.8969 39.9283 34.5572C38.4978 37.2174 36.3542 39.4263 33.738 40.9359C30.6902 42.7081 27.1452 43.4314 23.6467 42.9949C20.2268 42.5688 17.0283 41.075 14.5064 38.7259C14.3399 38.5713 14.2187 38.3741 14.1559 38.1558C14.093 37.9374 14.0909 37.706 14.1497 37.4865C14.2085 37.267 14.3261 37.0677 14.4897 36.91C14.6533 36.7523 14.8568 36.6422 15.0784 36.5915C17.5028 36.0238 19.7278 34.8089 21.5163 33.0764C23.3047 31.3439 24.5896 29.1586 25.2341 26.7535C25.8786 24.3483 25.8584 21.8133 25.1758 19.4187C24.4932 17.0241 23.1737 14.8595 21.358 13.1556C21.1915 13.001 21.0703 12.8039 21.0074 12.5855C20.9446 12.3671 20.9424 12.1357 21.0012 11.9162C21.0601 11.6967 21.1776 11.4974 21.3412 11.3397C21.5049 11.182 21.7084 11.0719 21.9299 11.0212L21.9243 11.0334Z" fill="white"/>
</g>
<defs>
<clipPath id="clip0_7_199">
<rect width="40" height="40" fill="white" transform="translate(20 54.641) rotate(-120)"/>
</clipPath>
</defs>
</svg>
