<svg width="42" height="42" viewBox="0 0 42 42" fill="none" xmlns="http://www.w3.org/2000/svg">
<path d="M38.5875 30.9888C37.5469 29.1963 36 24.1244 36 17.5C36 13.5218 34.4197 9.70644 31.6066 6.8934C28.7936 4.08035 24.9783 2.5 21 2.5C17.0218 2.5 13.2065 4.08035 10.3934 6.8934C7.58038 9.70644 6.00002 13.5218 6.00002 17.5C6.00002 24.1262 4.45127 29.1963 3.41065 30.9888C3.14491 31.4445 3.00403 31.9622 3.00221 32.4897C3.0004 33.0172 3.13773 33.5359 3.40033 33.9934C3.66294 34.4509 4.04155 34.8311 4.49797 35.0956C4.95439 35.3601 5.4725 35.4996 6.00002 35.5H13.6519C13.998 37.1934 14.9183 38.7153 16.2573 39.8083C17.5962 40.9013 19.2716 41.4983 21 41.4983C22.7284 41.4983 24.4038 40.9013 25.7428 39.8083C27.0817 38.7153 28.0021 37.1934 28.3482 35.5H36C36.5274 35.4993 37.0453 35.3596 37.5014 35.0949C37.9576 34.8303 38.3359 34.4501 38.5983 33.9926C38.8607 33.5351 38.9979 33.0166 38.996 32.4892C38.9941 31.9619 38.8532 31.4443 38.5875 30.9888ZM21 38.5C20.0697 38.4997 19.1623 38.2111 18.4028 37.6738C17.6432 37.1366 17.0689 36.3771 16.7588 35.5H25.2413C24.9312 36.3771 24.3568 37.1366 23.5973 37.6738C22.8377 38.2111 21.9304 38.4997 21 38.5ZM6.00002 32.5C7.44377 30.0175 9.00002 24.265 9.00002 17.5C9.00002 14.3174 10.2643 11.2652 12.5147 9.01472C14.7652 6.76428 17.8174 5.5 21 5.5C24.1826 5.5 27.2349 6.76428 29.4853 9.01472C31.7357 11.2652 33 14.3174 33 17.5C33 24.2594 34.5525 30.0119 36 32.5H6.00002Z" fill="#333333"/>
</svg>
