<svg width="20" height="19" viewBox="0 0 20 19" fill="none" xmlns="http://www.w3.org/2000/svg">
<path id="Vector" d="M16.5722 3.05219C14.7569 1.25462 12.3047 0.247386 9.75 0.250005H9.64969C7.08125 0.276432 4.62699 1.31532 2.82015 3.14094C1.01331 4.96656 -0.000135935 7.43143 1.36758e-08 10C1.36758e-08 14.0313 2.49187 17.4119 6.5025 18.8284C6.95485 18.9879 7.43885 19.0366 7.91391 18.9704C8.38897 18.9043 8.84123 18.7252 9.23278 18.4481C9.62432 18.1711 9.94373 17.8042 10.1642 17.3782C10.3847 16.9523 10.4999 16.4797 10.5 16C10.5 15.6022 10.658 15.2207 10.9393 14.9393C11.2206 14.658 11.6022 14.5 12 14.5H16.3322C17.0127 14.5033 17.6739 14.2737 18.2059 13.8495C18.738 13.4252 19.1089 12.8317 19.2572 12.1675C19.4248 11.4294 19.5063 10.6744 19.5 9.91751C19.4904 8.63638 19.2267 7.36988 18.7242 6.19141C18.2216 5.01294 17.4901 3.94592 16.5722 3.05219ZM17.7909 11.8375C17.7164 12.1684 17.5313 12.464 17.266 12.6753C17.0008 12.8867 16.6714 13.0012 16.3322 13H12C11.2043 13 10.4413 13.3161 9.87868 13.8787C9.31607 14.4413 9 15.2044 9 16C8.99965 16.2396 8.94192 16.4756 8.83163 16.6883C8.72134 16.901 8.5617 17.0842 8.36609 17.2225C8.17047 17.3609 7.94456 17.4503 7.70726 17.4834C7.46997 17.5166 7.2282 17.4923 7.00219 17.4128C3.60844 16.2156 1.5 13.375 1.5 10C1.49988 7.82667 2.35736 5.74108 3.88613 4.19633C5.4149 2.65158 7.49147 1.77248 9.66469 1.75001H9.74906C11.9224 1.75845 14.0053 2.62073 15.5486 4.15091C17.0919 5.68109 17.972 7.75654 17.9991 9.92969C18.0046 10.5714 17.9361 11.2116 17.7947 11.8375H17.7909ZM10.875 5.12501C10.875 5.34751 10.809 5.56502 10.6854 5.75002C10.5618 5.93503 10.3861 6.07922 10.1805 6.16437C9.97495 6.24952 9.74875 6.2718 9.53052 6.22839C9.31229 6.18498 9.11184 6.07783 8.9545 5.9205C8.79717 5.76317 8.69002 5.56271 8.64662 5.34448C8.60321 5.12625 8.62549 4.90005 8.71064 4.69449C8.79578 4.48892 8.93998 4.31322 9.12498 4.1896C9.30999 4.06599 9.5275 4.00001 9.75 4.00001C10.0484 4.00001 10.3345 4.11853 10.5455 4.32951C10.7565 4.54049 10.875 4.82664 10.875 5.12501ZM6.75 7.37501C6.75 7.59751 6.68402 7.81502 6.5604 8.00002C6.43679 8.18503 6.26109 8.32922 6.05552 8.41437C5.84995 8.49952 5.62375 8.5218 5.40552 8.47839C5.18729 8.43498 4.98684 8.32784 4.8295 8.1705C4.67217 8.01317 4.56502 7.81271 4.52162 7.59448C4.47821 7.37625 4.50049 7.15005 4.58564 6.94449C4.67078 6.73892 4.81498 6.56322 4.99998 6.4396C5.18499 6.31599 5.4025 6.25001 5.625 6.25001C5.92337 6.25001 6.20952 6.36853 6.42049 6.57951C6.63147 6.79049 6.75 7.07664 6.75 7.37501ZM6.75 12.625C6.75 12.8475 6.68402 13.065 6.5604 13.25C6.43679 13.435 6.26109 13.5792 6.05552 13.6644C5.84995 13.7495 5.62375 13.7718 5.40552 13.7284C5.18729 13.685 4.98684 13.5778 4.8295 13.4205C4.67217 13.2632 4.56502 13.0627 4.52162 12.8445C4.47821 12.6263 4.50049 12.4001 4.58564 12.1945C4.67078 11.9889 4.81498 11.8132 4.99998 11.6896C5.18499 11.566 5.4025 11.5 5.625 11.5C5.92337 11.5 6.20952 11.6185 6.42049 11.8295C6.63147 12.0405 6.75 12.3266 6.75 12.625ZM15 7.37501C15 7.59751 14.934 7.81502 14.8104 8.00002C14.6868 8.18503 14.5111 8.32922 14.3055 8.41437C14.0999 8.49952 13.8738 8.5218 13.6555 8.47839C13.4373 8.43498 13.2368 8.32784 13.0795 8.1705C12.9222 8.01317 12.815 7.81271 12.7716 7.59448C12.7282 7.37625 12.7505 7.15005 12.8356 6.94449C12.9208 6.73892 13.065 6.56322 13.25 6.4396C13.435 6.31599 13.6525 6.25001 13.875 6.25001C14.1734 6.25001 14.4595 6.36853 14.6705 6.57951C14.8815 6.79049 15 7.07664 15 7.37501Z" fill="#0099FF"/>
</svg>
