<svg width="30" height="32" viewBox="0 0 30 32" fill="none" xmlns="http://www.w3.org/2000/svg">
<path id="Vector" d="M29.3333 2.66667V29.3333C29.3333 30.0406 29.0524 30.7189 28.5523 31.219C28.0522 31.719 27.3739 32 26.6667 32H20C19.2928 32 18.6145 31.719 18.1144 31.219C17.6143 30.7189 17.3333 30.0406 17.3333 29.3333V2.66667C17.3333 1.95942 17.6143 1.28115 18.1144 0.781048C18.6145 0.280951 19.2928 0 20 0H26.6667C27.3739 0 28.0522 0.280951 28.5523 0.781048C29.0524 1.28115 29.3333 1.95942 29.3333 2.66667ZM9.33333 0H2.66667C1.95942 0 1.28115 0.280951 0.781048 0.781048C0.280951 1.28115 0 1.95942 0 2.66667V29.3333C0 30.0406 0.280951 30.7189 0.781048 31.219C1.28115 31.719 1.95942 32 2.66667 32H9.33333C10.0406 32 10.7189 31.719 11.219 31.219C11.719 30.7189 12 30.0406 12 29.3333V2.66667C12 1.95942 11.719 1.28115 11.219 0.781048C10.7189 0.280951 10.0406 0 9.33333 0Z" fill="#333333"/>
</svg>
