<svg width="30" height="32" viewBox="0 0 30 32" fill="none" xmlns="http://www.w3.org/2000/svg">
<path d="M29.8333 2.66667V29.3333C29.8333 30.0406 29.5524 30.7189 29.0523 31.219C28.5522 31.719 27.8739 32 27.1667 32H20.5C19.7928 32 19.1145 31.719 18.6144 31.219C18.1143 30.7189 17.8333 30.0406 17.8333 29.3333V2.66667C17.8333 1.95942 18.1143 1.28115 18.6144 0.781048C19.1145 0.280951 19.7928 0 20.5 0H27.1667C27.8739 0 28.5522 0.280951 29.0523 0.781048C29.5524 1.28115 29.8333 1.95942 29.8333 2.66667ZM9.83333 0H3.16667C2.45942 0 1.78115 0.280951 1.28105 0.781048C0.780951 1.28115 0.5 1.95942 0.5 2.66667V29.3333C0.5 30.0406 0.780951 30.7189 1.28105 31.219C1.78115 31.719 2.45942 32 3.16667 32H9.83333C10.5406 32 11.2189 31.719 11.719 31.219C12.219 30.7189 12.5 30.0406 12.5 29.3333V2.66667C12.5 1.95942 12.219 1.28115 11.719 0.781048C11.2189 0.280951 10.5406 0 9.83333 0Z" fill="#4D4D4D"/>
</svg>
