<svg width="19" height="21" viewBox="0 0 19 21" fill="none" xmlns="http://www.w3.org/2000/svg">
<g clip-path="url(#clip0_9_32)">
<path d="M18.3103 6.87845L14.1216 2.68876C13.9823 2.54943 13.8169 2.43892 13.6349 2.36351C13.4529 2.28811 13.2578 2.2493 13.0608 2.2493C12.8638 2.2493 12.6687 2.28811 12.4867 2.36351C12.3047 2.43892 12.1393 2.54943 12 2.68876L0.439695 14.25C0.299801 14.3888 0.188889 14.554 0.113407 14.736C0.0379245 14.9181 -0.000621974 15.1133 7.58902e-06 15.3103V19.5C7.58902e-06 19.8978 0.158043 20.2794 0.439347 20.5607C0.720652 20.842 1.10218 21 1.50001 21H5.6897C5.88675 21.0006 6.08197 20.9621 6.26399 20.8866C6.44602 20.8111 6.61122 20.7002 6.75001 20.5603L18.3103 9.00001C18.4496 8.86072 18.5602 8.69534 18.6356 8.51333C18.711 8.33132 18.7498 8.13624 18.7498 7.93923C18.7498 7.74222 18.711 7.54713 18.6356 7.36512C18.5602 7.18311 18.4496 7.01774 18.3103 6.87845ZM5.6897 19.5H1.50001V15.3103L9.75001 7.06032L13.9397 11.25L5.6897 19.5ZM15 10.1888L10.8103 6.00001L13.0603 3.75001L17.25 7.93876L15 10.1888Z" fill="#0099FF"/>
</g>
<defs>
<clipPath id="clip0_9_32">
<rect width="19" height="21" fill="white"/>
</clipPath>
</defs>
</svg>
