<svg width="55" height="64" viewBox="0 0 55 64" fill="none" xmlns="http://www.w3.org/2000/svg">
<path id="Vector" d="M54.1512 32C54.1533 32.8357 53.939 33.6578 53.5292 34.3862C53.1195 35.1146 52.5282 35.7245 51.8129 36.1567L7.48272 63.2754C6.73533 63.7331 5.87931 63.9829 5.00308 63.9992C4.12684 64.0154 3.26217 63.7974 2.49834 63.3677C1.74179 62.9447 1.11157 62.3278 0.672472 61.5805C0.233378 60.8332 0.00126412 59.9824 0 59.1156V4.88438C0.00126412 4.0176 0.233378 3.16681 0.672472 2.41948C1.11157 1.67216 1.74179 1.05528 2.49834 0.632275C3.26217 0.202598 4.12684 -0.0153824 5.00308 0.000844102C5.87931 0.0170706 6.73533 0.266917 7.48272 0.724578L51.8129 27.8433C52.5282 28.2755 53.1195 28.8854 53.5292 29.6138C53.939 30.3422 54.1533 31.1643 54.1512 32Z" fill="#0099FF"/>
</svg>
