<svg width="52" height="52" viewBox="0 0 52 52" fill="none" xmlns="http://www.w3.org/2000/svg">
<g id="PhPlusCircleFill 2" clip-path="url(#clip0_7_73)">
<path id="Vector" d="M26 0C20.8577 0 15.8309 1.52487 11.5552 4.38179C7.27951 7.23871 3.94702 11.2994 1.97914 16.0502C0.0112654 20.8011 -0.503621 26.0288 0.499594 31.0723C1.50281 36.1159 3.97907 40.7486 7.61524 44.3848C11.2514 48.0209 15.8842 50.4972 20.9277 51.5004C25.9712 52.5036 31.1989 51.9887 35.9498 50.0209C40.7007 48.053 44.7613 44.7205 47.6182 40.4448C50.4751 36.1691 52 31.1423 52 26C51.9914 19.107 49.2494 12.4988 44.3753 7.62472C39.5012 2.75064 32.893 0.00860012 26 0ZM36 28H28V36C28 36.5304 27.7893 37.0391 27.4142 37.4142C27.0392 37.7893 26.5304 38 26 38C25.4696 38 24.9609 37.7893 24.5858 37.4142C24.2107 37.0391 24 36.5304 24 36V28H16C15.4696 28 14.9609 27.7893 14.5858 27.4142C14.2107 27.0391 14 26.5304 14 26C14 25.4696 14.2107 24.9609 14.5858 24.5858C14.9609 24.2107 15.4696 24 16 24H24V16C24 15.4696 24.2107 14.9609 24.5858 14.5858C24.9609 14.2107 25.4696 14 26 14C26.5304 14 27.0392 14.2107 27.4142 14.5858C27.7893 14.9609 28 15.4696 28 16V24H36C36.5304 24 37.0392 24.2107 37.4142 24.5858C37.7893 24.9609 38 25.4696 38 26C38 26.5304 37.7893 27.0391 37.4142 27.4142C37.0392 27.7893 36.5304 28 36 28Z" fill="#0099FF"/>
</g>
<defs>
<clipPath id="clip0_7_73">
<rect width="52" height="52" fill="white"/>
</clipPath>
</defs>
</svg>
