<svg width="24" height="24" viewBox="0 0 24 24" fill="none" xmlns="http://www.w3.org/2000/svg">
<g id="PhLightning(1) 1">
<path id="Vector" d="M20.2303 11.0784C20.2019 10.9582 20.1443 10.8469 20.0625 10.7543C19.9807 10.6618 19.8774 10.5908 19.7616 10.5478L14.3607 8.52187L15.735 1.64718C15.7662 1.48745 15.7445 1.32194 15.6733 1.1756C15.6021 1.02927 15.4852 0.910072 15.3403 0.835986C15.1954 0.761899 15.0304 0.736949 14.8701 0.7649C14.7097 0.792851 14.5629 0.872186 14.4516 0.990934L3.95159 12.2409C3.86631 12.3308 3.80462 12.4404 3.77203 12.5599C3.73943 12.6794 3.73696 12.8052 3.76481 12.9259C3.79267 13.0466 3.84999 13.1585 3.93166 13.2517C4.01334 13.3448 4.11681 13.4163 4.23284 13.4597L9.63566 15.4856L8.26503 22.3528C8.23391 22.5125 8.25558 22.6781 8.32679 22.8244C8.39799 22.9707 8.51485 23.0899 8.65974 23.164C8.80463 23.2381 8.96969 23.263 9.13001 23.2351C9.29032 23.2071 9.4372 23.1278 9.54847 23.0091L20.0485 11.7591C20.1322 11.6692 20.1926 11.5601 20.2243 11.4414C20.256 11.3228 20.2581 11.1981 20.2303 11.0784ZM10.2535 20.0625L11.235 15.1519C11.2702 14.9777 11.2423 14.7967 11.1565 14.6412C11.0706 14.4856 10.9324 14.3656 10.7663 14.3025L5.81253 12.4416L13.7457 3.94218L12.765 8.85281C12.7299 9.02697 12.7577 9.20794 12.8436 9.36349C12.9294 9.51904 13.0677 9.63907 13.2338 9.70218L18.1838 11.5584L10.2535 20.0625Z" fill="#FFE500"/>
</g>
</svg>
