<svg width="32" height="32" viewBox="0 0 32 32" fill="none" xmlns="http://www.w3.org/2000/svg">
<path opacity="0.2" d="M30.7692 16C30.7692 18.9211 29.903 21.7766 28.2801 24.2053C26.6572 26.6341 24.3506 28.5271 21.6519 29.645C18.9532 30.7628 15.9836 31.0553 13.1186 30.4854C10.2537 29.9156 7.62204 28.5089 5.55653 26.4434C3.49101 24.3779 2.08438 21.7463 1.51451 18.8813C0.944632 16.0164 1.23711 13.0468 2.35496 10.3481C3.47281 7.64934 5.36582 5.3427 7.7946 3.71984C10.2234 2.09697 13.0789 1.23077 15.9999 1.23077C19.917 1.23077 23.6736 2.78681 26.4434 5.55658C29.2131 8.32635 30.7692 12.083 30.7692 16Z" fill="#FF0000"/>
<path d="M21.7938 11.9477L17.74 16L21.7938 20.0523C21.9082 20.1667 21.9989 20.3024 22.0608 20.4518C22.1227 20.6012 22.1545 20.7614 22.1545 20.9231C22.1545 21.0848 22.1227 21.2449 22.0608 21.3943C21.9989 21.5437 21.9082 21.6795 21.7938 21.7938C21.6795 21.9082 21.5437 21.9989 21.3943 22.0608C21.2449 22.1227 21.0848 22.1545 20.9231 22.1545C20.7614 22.1545 20.6012 22.1227 20.4518 22.0608C20.3024 21.9989 20.1667 21.9082 20.0523 21.7938L16 17.74L11.9477 21.7938C11.8333 21.9082 11.6976 21.9989 11.5482 22.0608C11.3988 22.1227 11.2386 22.1545 11.0769 22.1545C10.9152 22.1545 10.7551 22.1227 10.6057 22.0608C10.4563 21.9989 10.3205 21.9082 10.2062 21.7938C10.0918 21.6795 10.0011 21.5437 9.93921 21.3943C9.87733 21.2449 9.84547 21.0848 9.84547 20.9231C9.84547 20.7614 9.87733 20.6012 9.93921 20.4518C10.0011 20.3024 10.0918 20.1667 10.2062 20.0523L14.26 16L10.2062 11.9477C9.97522 11.7167 9.84547 11.4035 9.84547 11.0769C9.84547 10.7503 9.97522 10.4371 10.2062 10.2062C10.4371 9.97521 10.7503 9.84547 11.0769 9.84547C11.4035 9.84547 11.7168 9.97521 11.9477 10.2062L16 14.26L20.0523 10.2062C20.1667 10.0918 20.3024 10.0011 20.4518 9.93921C20.6012 9.87732 20.7614 9.84547 20.9231 9.84547C21.0848 9.84547 21.2449 9.87732 21.3943 9.93921C21.5437 10.0011 21.6795 10.0918 21.7938 10.2062C21.9082 10.3205 21.9989 10.4563 22.0608 10.6057C22.1227 10.7551 22.1545 10.9152 22.1545 11.0769C22.1545 11.2386 22.1227 11.3988 22.0608 11.5482C21.9989 11.6976 21.9082 11.8333 21.7938 11.9477ZM32 16C32 19.1645 31.0616 22.2579 29.3035 24.8891C27.5454 27.5203 25.0466 29.5711 22.1229 30.7821C19.1993 31.9931 15.9823 32.3099 12.8786 31.6926C9.77486 31.0752 6.92394 29.5513 4.6863 27.3137C2.44866 25.0761 0.924806 22.2251 0.307443 19.1214C-0.309921 16.0177 0.00693255 12.8007 1.21793 9.87706C2.42894 6.95345 4.4797 4.45459 7.11088 2.69649C9.74207 0.938383 12.8355 0 16 0C20.2421 0.00447972 24.3091 1.69163 27.3088 4.69124C30.3084 7.69085 31.9955 11.7579 32 16ZM29.5385 16C29.5385 13.3223 28.7444 10.7048 27.2568 8.47843C25.7692 6.25204 23.6548 4.51679 21.1809 3.49209C18.7071 2.4674 15.985 2.19929 13.3588 2.72168C10.7326 3.24406 8.32026 4.53347 6.42687 6.42686C4.53348 8.32025 3.24407 10.7326 2.72168 13.3588C2.1993 15.985 2.4674 18.7071 3.4921 21.1809C4.51679 23.6548 6.25205 25.7692 8.47844 27.2568C10.7048 28.7444 13.3223 29.5385 16 29.5385C19.5894 29.5344 23.0306 28.1067 25.5686 25.5686C28.1067 23.0306 29.5344 19.5894 29.5385 16Z" fill="#FF0000"/>
</svg>
