<svg width="91" height="16" viewBox="0 0 91 16" fill="none" xmlns="http://www.w3.org/2000/svg">
<path d="M16.1908 7.28813L12.8497 10.204L13.8506 14.5453C13.9035 14.7722 13.8884 15.0098 13.8071 15.2282C13.7258 15.4466 13.5819 15.6362 13.3935 15.7733C13.205 15.9103 12.9803 15.9888 12.7475 15.9989C12.5147 16.009 12.284 15.9502 12.0844 15.8299L8.29805 13.5333L4.51982 15.8299C4.32021 15.9502 4.08958 16.009 3.85675 15.9989C3.62393 15.9888 3.39923 15.9103 3.21077 15.7733C3.0223 15.6362 2.87842 15.4466 2.79713 15.2282C2.71583 15.0098 2.70072 14.7722 2.75368 14.5453L3.75306 10.2085L0.411177 7.28813C0.234421 7.13569 0.106609 6.93445 0.0437668 6.70965C-0.019075 6.48486 -0.0141484 6.24651 0.0579285 6.0245C0.130006 5.8025 0.266024 5.60671 0.448928 5.4617C0.631832 5.31669 0.853478 5.22891 1.08607 5.20936L5.49104 4.82784L7.21051 0.726606C7.3003 0.511407 7.45176 0.327586 7.64581 0.198289C7.83986 0.068992 8.06783 0 8.30101 0C8.53419 0 8.76216 0.068992 8.95621 0.198289C9.15026 0.327586 9.30172 0.511407 9.39151 0.726606L11.1162 4.82784L15.5196 5.20936C15.7522 5.22891 15.9739 5.31669 16.1568 5.4617C16.3397 5.60671 16.4757 5.8025 16.5478 6.0245C16.6199 6.24651 16.6248 6.48486 16.562 6.70965C16.4991 6.93445 16.3713 7.13569 16.1945 7.28813H16.1908Z" fill="#0099FF"/>
<path d="M40.7966 7.28813L37.4554 10.204L38.4563 14.5453C38.5092 14.7722 38.4941 15.0098 38.4128 15.2282C38.3315 15.4466 38.1877 15.6362 37.9992 15.7733C37.8107 15.9103 37.586 15.9888 37.3532 15.9989C37.1204 16.009 36.8897 15.9502 36.6901 15.8299L32.9038 13.5333L29.1255 15.8299C28.9259 15.9502 28.6953 16.009 28.4625 15.9989C28.2296 15.9888 28.0049 15.9103 27.8165 15.7733C27.628 15.6362 27.4841 15.4466 27.4028 15.2282C27.3215 15.0098 27.3064 14.7722 27.3594 14.5453L28.3588 10.2085L25.0169 7.28813C24.8401 7.13569 24.7123 6.93445 24.6495 6.70965C24.5866 6.48486 24.5916 6.24651 24.6636 6.0245C24.7357 5.8025 24.8717 5.60671 25.0546 5.4617C25.2375 5.31669 25.4592 5.22891 25.6918 5.20936L30.0968 4.82784L31.8162 0.726606C31.906 0.511407 32.0575 0.327586 32.2515 0.198289C32.4456 0.068992 32.6735 0 32.9067 0C33.1399 0 33.3679 0.068992 33.5619 0.198289C33.756 0.327586 33.9074 0.511407 33.9972 0.726606L35.7219 4.82784L40.1254 5.20936C40.358 5.22891 40.5796 5.31669 40.7625 5.4617C40.9454 5.60671 41.0814 5.8025 41.1535 6.0245C41.2256 6.24651 41.2305 6.48486 41.1677 6.70965C41.1048 6.93445 40.977 7.13569 40.8003 7.28813H40.7966Z" fill="#0099FF"/>
<path d="M65.7505 6.02205C65.6787 5.80083 65.5434 5.60561 65.3615 5.46071C65.1796 5.31581 64.959 5.22762 64.7274 5.20714L60.3276 4.82784L58.6029 0.726606C58.5131 0.511407 58.3617 0.327586 58.1676 0.198289C57.9736 0.068992 57.7456 0 57.5124 0C57.2793 0 57.0513 0.068992 56.8572 0.198289C56.6632 0.327586 56.5117 0.511407 56.4219 0.726606L54.7025 4.82784L50.2975 5.20936C50.0649 5.22891 49.8433 5.31669 49.6604 5.4617C49.4775 5.60671 49.3414 5.8025 49.2694 6.0245C49.1973 6.24651 49.1924 6.48486 49.2552 6.70965C49.318 6.93445 49.4458 7.13569 49.6226 7.28813L52.9645 10.2085L51.9629 14.5453C51.9099 14.7722 51.925 15.0098 52.0063 15.2282C52.0876 15.4466 52.2315 15.6362 52.42 15.7733C52.6084 15.9103 52.8331 15.9888 53.066 15.9989C53.2988 16.009 53.5294 15.9502 53.729 15.8299L57.5072 13.5333L61.2936 15.8299C61.4932 15.9502 61.7239 16.009 61.9567 15.9989C62.1895 15.9888 62.4142 15.9103 62.6027 15.7733C62.7911 15.6362 62.935 15.4466 63.0163 15.2282C63.0976 15.0098 63.1127 14.7722 63.0598 14.5453L62.0589 10.204L65.4 7.28813C65.5768 7.13516 65.7043 6.93335 65.7667 6.70808C65.829 6.4828 65.8234 6.24413 65.7505 6.02205ZM64.6229 6.39247L61.2818 9.30837C61.1192 9.44982 60.9982 9.63293 60.9319 9.838C60.8656 10.0431 60.8564 10.2623 60.9054 10.4722L61.9093 14.8164L58.1258 12.5199C57.9413 12.4075 57.7293 12.348 57.5132 12.348C57.2971 12.348 57.0851 12.4075 56.9005 12.5199L53.1223 14.8164L54.1194 10.4752C54.1684 10.2653 54.1593 10.046 54.093 9.84096C54.0267 9.63589 53.9057 9.45278 53.7431 9.31134L50.4005 6.39691C50.4002 6.3947 50.4002 6.39246 50.4005 6.39025L54.804 6.00946C55.019 5.99051 55.2247 5.91322 55.399 5.78593C55.5733 5.65864 55.7095 5.48618 55.793 5.28715L57.5124 1.19111L59.2312 5.28715C59.3146 5.48618 59.4509 5.65864 59.6251 5.78593C59.7994 5.91322 60.0052 5.99051 60.2202 6.00946L64.6244 6.39025V6.39543L64.6229 6.39247Z" fill="#0099FF"/>
<path d="M90.3486 6.02205C90.2768 5.80083 90.1416 5.60561 89.9596 5.46071C89.7777 5.31581 89.5572 5.22762 89.3255 5.20714L84.9257 4.82784L83.2011 0.726606C83.1113 0.511407 82.9598 0.327586 82.7658 0.198289C82.5717 0.068992 82.3438 0 82.1106 0C81.8774 0 81.6494 0.068992 81.4554 0.198289C81.2613 0.327586 81.1099 0.511407 81.0201 0.726606L79.3006 4.82784L74.8956 5.20936C74.663 5.22891 74.4414 5.31669 74.2585 5.4617C74.0756 5.60671 73.9396 5.8025 73.8675 6.0245C73.7954 6.24651 73.7905 6.48486 73.8533 6.70965C73.9162 6.93445 74.044 7.13569 74.2207 7.28813L77.5626 10.2085L76.561 14.5453C76.5081 14.7722 76.5232 15.0098 76.6045 15.2282C76.6858 15.4466 76.8296 15.6362 77.0181 15.7733C77.2066 15.9103 77.4313 15.9888 77.6641 15.9989C77.8969 16.009 78.1276 15.9502 78.3272 15.8299L82.1054 13.5333L85.8918 15.8299C86.0914 15.9502 86.322 16.009 86.5548 15.9989C86.7877 15.9888 87.0124 15.9103 87.2008 15.7733C87.3893 15.6362 87.5332 15.4466 87.6145 15.2282C87.6958 15.0098 87.7109 14.7722 87.6579 14.5453L86.657 10.204L89.9982 7.28813C90.1749 7.13516 90.3025 6.93335 90.3648 6.70808C90.4272 6.4828 90.4215 6.24413 90.3486 6.02205ZM89.2211 6.39247L85.8799 9.30837C85.7173 9.44982 85.5963 9.63293 85.53 9.838C85.4637 10.0431 85.4546 10.2623 85.5036 10.4722L86.5074 14.8164L82.724 12.5199C82.5394 12.4075 82.3274 12.348 82.1113 12.348C81.8952 12.348 81.6832 12.4075 81.4987 12.5199L77.7204 14.8164L78.7176 10.4752C78.7666 10.2653 78.7574 10.046 78.6911 9.84096C78.6248 9.63589 78.5039 9.45278 78.3412 9.31133L74.9986 6.39691C74.9983 6.3947 74.9983 6.39246 74.9986 6.39025L79.4021 6.00946C79.6171 5.99051 79.8228 5.91322 79.9971 5.78593C80.1714 5.65864 80.3076 5.48618 80.3911 5.28715L82.1106 1.19111L83.8293 5.28715C83.9128 5.48618 84.049 5.65864 84.2233 5.78593C84.3976 5.91322 84.6033 5.99051 84.8183 6.00946L89.2225 6.39025V6.39543L89.2211 6.39247Z" fill="#0099FF"/>
</svg>
