<svg width="91" height="16" viewBox="0 0 91 16" fill="none" xmlns="http://www.w3.org/2000/svg">
<path d="M16.1908 7.28813L12.8497 10.204L13.8506 14.5453C13.9035 14.7722 13.8884 15.0098 13.8071 15.2282C13.7258 15.4466 13.5819 15.6362 13.3935 15.7733C13.205 15.9103 12.9803 15.9888 12.7475 15.9989C12.5147 16.009 12.284 15.9502 12.0844 15.8299L8.29805 13.5333L4.51982 15.8299C4.32021 15.9502 4.08958 16.009 3.85675 15.9989C3.62393 15.9888 3.39923 15.9103 3.21077 15.7733C3.0223 15.6362 2.87842 15.4466 2.79713 15.2282C2.71583 15.0098 2.70072 14.7722 2.75368 14.5453L3.75306 10.2085L0.411177 7.28813C0.234421 7.13569 0.106609 6.93445 0.0437668 6.70965C-0.019075 6.48486 -0.0141484 6.24651 0.0579285 6.0245C0.130006 5.8025 0.266024 5.60671 0.448928 5.4617C0.631832 5.31669 0.853478 5.22891 1.08607 5.20936L5.49104 4.82784L7.21051 0.726606C7.3003 0.511407 7.45176 0.327586 7.64581 0.198289C7.83986 0.068992 8.06783 0 8.30101 0C8.53419 0 8.76216 0.068992 8.95621 0.198289C9.15026 0.327586 9.30172 0.511407 9.39151 0.726606L11.1162 4.82784L15.5196 5.20936C15.7522 5.22891 15.9739 5.31669 16.1568 5.4617C16.3397 5.60671 16.4757 5.8025 16.5478 6.0245C16.6199 6.24651 16.6248 6.48486 16.562 6.70965C16.4991 6.93445 16.3713 7.13569 16.1945 7.28813H16.1908Z" fill="#0099FF"/>
<path d="M40.7966 7.28813L37.4554 10.204L38.4563 14.5453C38.5092 14.7722 38.4941 15.0098 38.4128 15.2282C38.3315 15.4466 38.1877 15.6362 37.9992 15.7733C37.8107 15.9103 37.586 15.9888 37.3532 15.9989C37.1204 16.009 36.8897 15.9502 36.6901 15.8299L32.9038 13.5333L29.1255 15.8299C28.9259 15.9502 28.6953 16.009 28.4625 15.9989C28.2296 15.9888 28.0049 15.9103 27.8165 15.7733C27.628 15.6362 27.4841 15.4466 27.4028 15.2282C27.3215 15.0098 27.3064 14.7722 27.3594 14.5453L28.3588 10.2085L25.0169 7.28813C24.8401 7.13569 24.7123 6.93445 24.6495 6.70965C24.5866 6.48486 24.5916 6.24651 24.6636 6.0245C24.7357 5.8025 24.8717 5.60671 25.0546 5.4617C25.2375 5.31669 25.4592 5.22891 25.6918 5.20936L30.0968 4.82784L31.8162 0.726606C31.906 0.511407 32.0575 0.327586 32.2515 0.198289C32.4456 0.068992 32.6735 0 32.9067 0C33.1399 0 33.3679 0.068992 33.5619 0.198289C33.756 0.327586 33.9074 0.511407 33.9972 0.726606L35.7219 4.82784L40.1254 5.20936C40.358 5.22891 40.5796 5.31669 40.7625 5.4617C40.9454 5.60671 41.0814 5.8025 41.1535 6.0245C41.2256 6.24651 41.2305 6.48486 41.1677 6.70965C41.1048 6.93445 40.977 7.13569 40.8003 7.28813H40.7966Z" fill="#0099FF"/>
<path d="M65.4023 7.28813L62.0611 10.204L63.062 14.5453C63.1149 14.7722 63.0998 15.0098 63.0185 15.2282C62.9372 15.4466 62.7934 15.6362 62.6049 15.7733C62.4164 15.9103 62.1917 15.9888 61.9589 15.9989C61.7261 16.009 61.4955 15.9502 61.2958 15.8299L57.5095 13.5333L53.7312 15.8299C53.5316 15.9502 53.301 16.009 53.0682 15.9989C52.8354 15.9888 52.6107 15.9103 52.4222 15.7733C52.2337 15.6362 52.0899 15.4466 52.0086 15.2282C51.9273 15.0098 51.9121 14.7722 51.9651 14.5453L52.9645 10.2085L49.6226 7.28813C49.4458 7.13569 49.318 6.93445 49.2552 6.70965C49.1924 6.48486 49.1973 6.24651 49.2694 6.0245C49.3414 5.8025 49.4775 5.60671 49.6604 5.4617C49.8433 5.31669 50.0649 5.22891 50.2975 5.20936L54.7025 4.82784L56.4219 0.726606C56.5117 0.511407 56.6632 0.327586 56.8572 0.198289C57.0513 0.068992 57.2793 0 57.5124 0C57.7456 0 57.9736 0.068992 58.1676 0.198289C58.3617 0.327586 58.5131 0.511407 58.6029 0.726606L60.3276 4.82784L64.7311 5.20936C64.9637 5.22891 65.1853 5.31669 65.3682 5.4617C65.5511 5.60671 65.6871 5.8025 65.7592 6.0245C65.8313 6.24651 65.8362 6.48486 65.7734 6.70965C65.7105 6.93445 65.5827 7.13569 65.406 7.28813H65.4023Z" fill="#0099FF"/>
<path d="M90.008 7.28813L86.6668 10.204L87.6677 14.5453C87.7207 14.7722 87.7055 15.0098 87.6243 15.2282C87.543 15.4466 87.3991 15.6362 87.2106 15.7733C87.0221 15.9103 86.7975 15.9888 86.5646 15.9989C86.3318 16.009 86.1012 15.9502 85.9016 15.8299L82.1152 13.5333L78.337 15.8299C78.1374 15.9502 77.9067 16.009 77.6739 15.9989C77.4411 15.9888 77.2164 15.9103 77.0279 15.7733C76.8394 15.6362 76.6956 15.4466 76.6143 15.2282C76.533 15.0098 76.5179 14.7722 76.5708 14.5453L77.5702 10.2085L74.2283 7.28813C74.0516 7.13569 73.9237 6.93445 73.8609 6.70965C73.7981 6.48486 73.803 6.24651 73.8751 6.0245C73.9471 5.8025 74.0832 5.60671 74.2661 5.4617C74.449 5.31669 74.6706 5.22891 74.9032 5.20936L79.3082 4.82784L81.0276 0.726606C81.1174 0.511407 81.2689 0.327586 81.4629 0.198289C81.657 0.068992 81.885 0 82.1181 0C82.3513 0 82.5793 0.068992 82.7733 0.198289C82.9674 0.327586 83.1189 0.511407 83.2086 0.726606L84.9333 4.82784L89.3368 5.20936C89.5694 5.22891 89.791 5.31669 89.9739 5.4617C90.1568 5.60671 90.2929 5.8025 90.3649 6.0245C90.437 6.24651 90.4419 6.48486 90.3791 6.70965C90.3163 6.93445 90.1884 7.13569 90.0117 7.28813H90.008Z" fill="#0099FF"/>
</svg>
