<svg width="92" height="16" viewBox="0 0 92 16" fill="none" xmlns="http://www.w3.org/2000/svg">
<path d="M91.539 6.02205C91.4673 5.80083 91.332 5.60561 91.1501 5.46071C90.9681 5.31581 90.7476 5.22762 90.5159 5.20714L86.1162 4.82784L84.3915 0.726606C84.3017 0.511407 84.1503 0.327586 83.9562 0.198289C83.7622 0.068992 83.5342 0 83.301 0C83.0678 0 82.8399 0.068992 82.6458 0.198289C82.4518 0.327586 82.3003 0.511407 82.2105 0.726606L80.491 4.82784L76.0861 5.20936C75.8535 5.22891 75.6318 5.31669 75.4489 5.4617C75.266 5.60671 75.13 5.8025 75.0579 6.0245C74.9859 6.24651 74.9809 6.48486 75.0438 6.70965C75.1066 6.93445 75.2344 7.13569 75.4112 7.28813L78.7531 10.2085L77.7515 14.5453C77.6985 14.7722 77.7136 15.0098 77.7949 15.2282C77.8762 15.4466 78.0201 15.6362 78.2085 15.7733C78.397 15.9103 78.6217 15.9888 78.8545 15.9989C79.0874 16.009 79.318 15.9502 79.5176 15.8299L83.2958 13.5333L87.0822 15.8299C87.2818 15.9502 87.5124 16.009 87.7453 15.9989C87.9781 15.9888 88.2028 15.9103 88.3912 15.7733C88.5797 15.6362 88.7236 15.4466 88.8049 15.2282C88.8862 15.0098 88.9013 14.7722 88.8483 14.5453L87.8475 10.204L91.1886 7.28813C91.3654 7.13516 91.4929 6.93335 91.5553 6.70808C91.6176 6.4828 91.612 6.24413 91.539 6.02205ZM90.4115 6.39247L87.0703 9.30837C86.9077 9.44982 86.7868 9.63293 86.7205 9.838C86.6541 10.0431 86.645 10.2623 86.694 10.4722L87.6978 14.8164L83.9144 12.5199C83.7298 12.4075 83.5179 12.348 83.3017 12.348C83.0856 12.348 82.8737 12.4075 82.6891 12.5199L78.9109 14.8164L79.908 10.4752C79.957 10.2653 79.9479 10.046 79.8816 9.84096C79.8152 9.63589 79.6943 9.45278 79.5317 9.31133L76.189 6.39691C76.1888 6.3947 76.1888 6.39246 76.189 6.39025L80.5925 6.00946C80.8075 5.99051 81.0133 5.91322 81.1876 5.78593C81.3618 5.65864 81.4981 5.48618 81.5815 5.28715L83.301 1.19111L85.0197 5.28715C85.1032 5.48618 85.2394 5.65864 85.4137 5.78593C85.588 5.91322 85.7937 5.99051 86.0087 6.00946L90.413 6.39025V6.39543L90.4115 6.39247Z" fill="#0099FF"/>
<path d="M41.539 6.02205C41.4673 5.80083 41.332 5.60561 41.1501 5.46071C40.9681 5.31581 40.7476 5.22762 40.5159 5.20714L36.1162 4.82784L34.3915 0.726606C34.3017 0.511407 34.1503 0.327586 33.9562 0.198289C33.7622 0.068992 33.5342 0 33.301 0C33.0678 0 32.8399 0.068992 32.6458 0.198289C32.4518 0.327586 32.3003 0.511407 32.2105 0.726606L30.491 4.82784L26.0861 5.20936C25.8535 5.22891 25.6318 5.31669 25.4489 5.4617C25.266 5.60671 25.13 5.8025 25.0579 6.0245C24.9859 6.24651 24.9809 6.48486 25.0438 6.70965C25.1066 6.93445 25.2344 7.13569 25.4112 7.28813L28.7531 10.2085L27.7515 14.5453C27.6985 14.7722 27.7136 15.0098 27.7949 15.2282C27.8762 15.4466 28.0201 15.6362 28.2085 15.7733C28.397 15.9103 28.6217 15.9888 28.8545 15.9989C29.0874 16.009 29.318 15.9502 29.5176 15.8299L33.2958 13.5333L37.0822 15.8299C37.2818 15.9502 37.5124 16.009 37.7453 15.9989C37.9781 15.9888 38.2028 15.9103 38.3912 15.7733C38.5797 15.6362 38.7236 15.4466 38.8049 15.2282C38.8862 15.0098 38.9013 14.7722 38.8483 14.5453L37.8475 10.204L41.1886 7.28813C41.3654 7.13516 41.4929 6.93335 41.5553 6.70808C41.6176 6.4828 41.612 6.24413 41.539 6.02205ZM40.4115 6.39247L37.0703 9.30837C36.9077 9.44982 36.7868 9.63293 36.7205 9.838C36.6541 10.0431 36.645 10.2623 36.694 10.4722L37.6978 14.8164L33.9144 12.5199C33.7298 12.4075 33.5179 12.348 33.3017 12.348C33.0856 12.348 32.8737 12.4075 32.6891 12.5199L28.9109 14.8164L29.908 10.4752C29.957 10.2653 29.9479 10.046 29.8816 9.84096C29.8152 9.63589 29.6943 9.45278 29.5317 9.31133L26.189 6.39691C26.1888 6.3947 26.1888 6.39246 26.189 6.39025L30.5925 6.00946C30.8075 5.99051 31.0133 5.91322 31.1876 5.78593C31.3618 5.65864 31.4981 5.48618 31.5815 5.28715L33.301 1.19111L35.0197 5.28715C35.1032 5.48618 35.2394 5.65864 35.4137 5.78593C35.588 5.91322 35.7937 5.99051 36.0087 6.00946L40.413 6.39025V6.39543L40.4115 6.39247Z" fill="#0099FF"/>
<path d="M66.539 6.02205C66.4673 5.80083 66.332 5.60561 66.1501 5.46071C65.9681 5.31581 65.7476 5.22762 65.5159 5.20714L61.1162 4.82784L59.3915 0.726606C59.3017 0.511407 59.1503 0.327586 58.9562 0.198289C58.7622 0.068992 58.5342 0 58.301 0C58.0678 0 57.8399 0.068992 57.6458 0.198289C57.4518 0.327586 57.3003 0.511407 57.2105 0.726606L55.491 4.82784L51.0861 5.20936C50.8535 5.22891 50.6318 5.31669 50.4489 5.4617C50.266 5.60671 50.13 5.8025 50.0579 6.0245C49.9859 6.24651 49.9809 6.48486 50.0438 6.70965C50.1066 6.93445 50.2344 7.13569 50.4112 7.28813L53.7531 10.2085L52.7515 14.5453C52.6985 14.7722 52.7136 15.0098 52.7949 15.2282C52.8762 15.4466 53.0201 15.6362 53.2085 15.7733C53.397 15.9103 53.6217 15.9888 53.8545 15.9989C54.0874 16.009 54.318 15.9502 54.5176 15.8299L58.2958 13.5333L62.0822 15.8299C62.2818 15.9502 62.5124 16.009 62.7453 15.9989C62.9781 15.9888 63.2028 15.9103 63.3912 15.7733C63.5797 15.6362 63.7236 15.4466 63.8049 15.2282C63.8862 15.0098 63.9013 14.7722 63.8483 14.5453L62.8475 10.204L66.1886 7.28813C66.3654 7.13516 66.4929 6.93335 66.5553 6.70808C66.6176 6.4828 66.612 6.24413 66.539 6.02205ZM65.4115 6.39247L62.0703 9.30837C61.9077 9.44982 61.7868 9.63293 61.7205 9.838C61.6541 10.0431 61.645 10.2623 61.694 10.4722L62.6978 14.8164L58.9144 12.5199C58.7298 12.4075 58.5179 12.348 58.3017 12.348C58.0856 12.348 57.8737 12.4075 57.6891 12.5199L53.9109 14.8164L54.908 10.4752C54.957 10.2653 54.9479 10.046 54.8816 9.84096C54.8152 9.63589 54.6943 9.45278 54.5317 9.31133L51.189 6.39691C51.1888 6.3947 51.1888 6.39246 51.189 6.39025L55.5925 6.00946C55.8075 5.99051 56.0133 5.91322 56.1876 5.78593C56.3618 5.65864 56.4981 5.48618 56.5815 5.28715L58.301 1.19111L60.0197 5.28715C60.1032 5.48618 60.2394 5.65864 60.4137 5.78593C60.588 5.91322 60.7937 5.99051 61.0087 6.00946L65.413 6.39025V6.39543L65.4115 6.39247Z" fill="#0099FF"/>
<path d="M16.1908 7.28813L12.8497 10.204L13.8506 14.5453C13.9035 14.7722 13.8884 15.0098 13.8071 15.2282C13.7258 15.4466 13.5819 15.6362 13.3935 15.7733C13.205 15.9103 12.9803 15.9888 12.7475 15.9989C12.5147 16.009 12.284 15.9502 12.0844 15.8299L8.29805 13.5333L4.51982 15.8299C4.32021 15.9502 4.08958 16.009 3.85675 15.9989C3.62393 15.9888 3.39923 15.9103 3.21077 15.7733C3.0223 15.6362 2.87842 15.4466 2.79713 15.2282C2.71583 15.0098 2.70072 14.7722 2.75368 14.5453L3.75306 10.2085L0.411177 7.28813C0.234421 7.13569 0.106609 6.93445 0.0437668 6.70965C-0.019075 6.48486 -0.0141484 6.24651 0.0579285 6.0245C0.130006 5.8025 0.266024 5.60671 0.448928 5.4617C0.631832 5.31669 0.853478 5.22891 1.08607 5.20936L5.49104 4.82784L7.21051 0.726606C7.3003 0.511407 7.45176 0.327586 7.64581 0.198289C7.83986 0.068992 8.06783 0 8.30101 0C8.53419 0 8.76216 0.068992 8.95621 0.198289C9.15026 0.327586 9.30172 0.511407 9.39151 0.726606L11.1162 4.82784L15.5196 5.20936C15.7522 5.22891 15.9739 5.31669 16.1568 5.4617C16.3397 5.60671 16.4757 5.8025 16.5478 6.0245C16.6199 6.24651 16.6248 6.48486 16.562 6.70965C16.4991 6.93445 16.3713 7.13569 16.1945 7.28813H16.1908Z" fill="#0099FF"/>
</svg>
