<svg width="40" height="40" viewBox="0 0 40 40" fill="none" xmlns="http://www.w3.org/2000/svg">
<g id="PhSunDimFill 1">
<path id="Vector" d="M18.75 6.25V5C18.75 4.66848 18.8817 4.35054 19.1161 4.11612C19.3505 3.8817 19.6685 3.75 20 3.75C20.3315 3.75 20.6495 3.8817 20.8839 4.11612C21.1183 4.35054 21.25 4.66848 21.25 5V6.25C21.25 6.58152 21.1183 6.89946 20.8839 7.13388C20.6495 7.3683 20.3315 7.5 20 7.5C19.6685 7.5 19.3505 7.3683 19.1161 7.13388C18.8817 6.89946 18.75 6.58152 18.75 6.25ZM20 10C18.0222 10 16.0888 10.5865 14.4443 11.6853C12.7998 12.7841 11.5181 14.3459 10.7612 16.1732C10.0043 18.0004 9.8063 20.0111 10.1921 21.9509C10.578 23.8907 11.5304 25.6725 12.9289 27.0711C14.3275 28.4696 16.1093 29.422 18.0491 29.8079C19.9889 30.1937 21.9996 29.9957 23.8268 29.2388C25.6541 28.4819 27.2159 27.2002 28.3147 25.5557C29.4135 23.9112 30 21.9778 30 20C29.9971 17.3487 28.9426 14.8069 27.0679 12.9321C25.1931 11.0574 22.6513 10.0029 20 10ZM9.11562 10.8844C9.35018 11.1189 9.66829 11.2507 10 11.2507C10.3317 11.2507 10.6498 11.1189 10.8844 10.8844C11.1189 10.6498 11.2507 10.3317 11.2507 10C11.2507 9.66829 11.1189 9.35018 10.8844 9.11562L9.63438 7.86562C9.39982 7.63107 9.08171 7.49931 8.75 7.49931C8.41829 7.49931 8.10018 7.63107 7.86562 7.86562C7.63107 8.10018 7.49931 8.41829 7.49931 8.75C7.49931 9.08171 7.63107 9.39982 7.86562 9.63438L9.11562 10.8844ZM9.11562 29.1156L7.86562 30.3656C7.63107 30.6002 7.49931 30.9183 7.49931 31.25C7.49931 31.5817 7.63107 31.8998 7.86562 32.1344C8.10018 32.3689 8.41829 32.5007 8.75 32.5007C9.08171 32.5007 9.39982 32.3689 9.63438 32.1344L10.8844 30.8844C11.0005 30.7682 11.0926 30.6304 11.1555 30.4786C11.2183 30.3269 11.2507 30.1642 11.2507 30C11.2507 29.8358 11.2183 29.6731 11.1555 29.5214C11.0926 29.3696 11.0005 29.2318 10.8844 29.1156C10.7682 28.9995 10.6304 28.9074 10.4786 28.8445C10.3269 28.7817 10.1642 28.7493 10 28.7493C9.83576 28.7493 9.67312 28.7817 9.52138 28.8445C9.36964 28.9074 9.23176 28.9995 9.11562 29.1156ZM30 11.25C30.1642 11.2501 30.3268 11.2179 30.4786 11.1552C30.6303 11.0924 30.7682 11.0004 30.8844 10.8844L32.1344 9.63438C32.3689 9.39982 32.5007 9.08171 32.5007 8.75C32.5007 8.41829 32.3689 8.10018 32.1344 7.86562C31.8998 7.63107 31.5817 7.49931 31.25 7.49931C30.9183 7.49931 30.6002 7.63107 30.3656 7.86562L29.1156 9.11562C28.9406 9.29044 28.8214 9.51326 28.7731 9.75587C28.7248 9.99847 28.7495 10.25 28.8442 10.4785C28.9389 10.707 29.0993 10.9023 29.305 11.0397C29.5108 11.177 29.7526 11.2502 30 11.25ZM30.8844 29.1156C30.6498 28.8811 30.3317 28.7493 30 28.7493C29.6683 28.7493 29.3502 28.8811 29.1156 29.1156C28.8811 29.3502 28.7493 29.6683 28.7493 30C28.7493 30.3317 28.8811 30.6498 29.1156 30.8844L30.3656 32.1344C30.4818 32.2505 30.6196 32.3426 30.7714 32.4055C30.9231 32.4683 31.0858 32.5007 31.25 32.5007C31.4142 32.5007 31.5769 32.4683 31.7286 32.4055C31.8804 32.3426 32.0182 32.2505 32.1344 32.1344C32.2505 32.0182 32.3426 31.8804 32.4055 31.7286C32.4683 31.5769 32.5007 31.4142 32.5007 31.25C32.5007 31.0858 32.4683 30.9231 32.4055 30.7714C32.3426 30.6196 32.2505 30.4818 32.1344 30.3656L30.8844 29.1156ZM6.25 18.75H5C4.66848 18.75 4.35054 18.8817 4.11612 19.1161C3.8817 19.3505 3.75 19.6685 3.75 20C3.75 20.3315 3.8817 20.6495 4.11612 20.8839C4.35054 21.1183 4.66848 21.25 5 21.25H6.25C6.58152 21.25 6.89946 21.1183 7.13388 20.8839C7.3683 20.6495 7.5 20.3315 7.5 20C7.5 19.6685 7.3683 19.3505 7.13388 19.1161C6.89946 18.8817 6.58152 18.75 6.25 18.75ZM20 32.5C19.6685 32.5 19.3505 32.6317 19.1161 32.8661C18.8817 33.1005 18.75 33.4185 18.75 33.75V35C18.75 35.3315 18.8817 35.6495 19.1161 35.8839C19.3505 36.1183 19.6685 36.25 20 36.25C20.3315 36.25 20.6495 36.1183 20.8839 35.8839C21.1183 35.6495 21.25 35.3315 21.25 35V33.75C21.25 33.4185 21.1183 33.1005 20.8839 32.8661C20.6495 32.6317 20.3315 32.5 20 32.5ZM35 18.75H33.75C33.4185 18.75 33.1005 18.8817 32.8661 19.1161C32.6317 19.3505 32.5 19.6685 32.5 20C32.5 20.3315 32.6317 20.6495 32.8661 20.8839C33.1005 21.1183 33.4185 21.25 33.75 21.25H35C35.3315 21.25 35.6495 21.1183 35.8839 20.8839C36.1183 20.6495 36.25 20.3315 36.25 20C36.25 19.6685 36.1183 19.3505 35.8839 19.1161C35.6495 18.8817 35.3315 18.75 35 18.75Z" fill="white"/>
</g>
</svg>
