<svg width="170" height="170" viewBox="0 0 170 170" fill="none" xmlns="http://www.w3.org/2000/svg">
<path d="M0 48C0 21.4903 21.4903 0 48 0H154C162.837 0 170 7.16344 170 16V122C170 148.51 148.51 170 122 170H16C7.16344 170 0 162.837 0 154V48Z" fill="url(#paint0_linear_337_7)"/>
<path d="M80.104 58.104V111H69.16V104.76C67.432 106.936 65.16 108.664 62.344 109.944C59.592 111.16 56.648 111.768 53.512 111.768C49.352 111.768 45.608 110.904 42.28 109.176C39.016 107.448 36.424 104.888 34.504 101.496C32.648 98.104 31.72 94.008 31.72 89.208V58.104H42.568V87.576C42.568 92.312 43.752 95.96 46.12 98.52C48.488 101.016 51.72 102.264 55.816 102.264C59.912 102.264 63.144 101.016 65.512 98.52C67.944 95.96 69.16 92.312 69.16 87.576V58.104H80.104Z" fill="white"/>
<path d="M141.856 64.152C141.856 67.544 141.056 70.744 139.456 73.752C137.856 76.76 135.296 79.224 131.776 81.144C128.256 83 123.744 83.928 118.24 83.928H106.144V111H95.2V44.28H118.24C123.36 44.28 127.68 45.176 131.2 46.968C134.784 48.696 137.44 51.064 139.168 54.072C140.96 57.08 141.856 60.44 141.856 64.152ZM118.24 75C122.4 75 125.504 74.072 127.552 72.216C129.6 70.296 130.624 67.608 130.624 64.152C130.624 56.856 126.496 53.208 118.24 53.208H106.144V75H118.24Z" fill="white"/>
<path d="M62 121H114" stroke="white" stroke-width="5" stroke-linecap="round"/>
<defs>
<linearGradient id="paint0_linear_337_7" x1="-3" y1="172.5" x2="170" y2="2.88524e-06" gradientUnits="userSpaceOnUse">
<stop stop-color="#0099FF"/>
<stop offset="1" stop-color="#66C2FF"/>
</linearGradient>
</defs>
</svg>
