<svg width="297" height="144" viewBox="0 0 297 144" fill="none" xmlns="http://www.w3.org/2000/svg">
<path d="M71 124H293" stroke="#0099FF" stroke-width="5" stroke-linecap="round"/>
<path d="M55.104 53.104V106H44.16V99.76C42.432 101.936 40.16 103.664 37.344 104.944C34.592 106.16 31.648 106.768 28.512 106.768C24.352 106.768 20.608 105.904 17.28 104.176C14.016 102.448 11.424 99.888 9.504 96.496C7.648 93.104 6.72 89.008 6.72 84.208V53.104H17.568V82.576C17.568 87.312 18.752 90.96 21.12 93.52C23.488 96.016 26.72 97.264 30.816 97.264C34.912 97.264 38.144 96.016 40.512 93.52C42.944 90.96 44.16 87.312 44.16 82.576V53.104H55.104Z" fill="#333333"/>
<path d="M116.2 59.152C116.2 62.544 115.4 65.744 113.8 68.752C112.2 71.76 109.64 74.224 106.12 76.144C102.6 78 98.0878 78.928 92.5838 78.928H80.4878V106H69.5438V39.28H92.5838C97.7038 39.28 102.024 40.176 105.544 41.968C109.128 43.696 111.784 46.064 113.512 49.072C115.304 52.08 116.2 55.44 116.2 59.152ZM92.5838 70C96.7438 70 99.8478 69.072 101.896 67.216C103.944 65.296 104.968 62.608 104.968 59.152C104.968 51.856 100.84 48.208 92.5838 48.208H80.4878V70H92.5838ZM175.118 78.256C175.118 80.24 174.99 82.032 174.734 83.632H134.318C134.638 87.856 136.206 91.248 139.022 93.808C141.838 96.368 145.294 97.648 149.39 97.648C155.278 97.648 159.438 95.184 161.87 90.256H173.677C172.078 95.12 169.166 99.12 164.942 102.256C160.782 105.328 155.598 106.864 149.39 106.864C144.334 106.864 139.79 105.744 135.758 103.504C131.79 101.2 128.654 98 126.35 93.904C124.11 89.744 122.99 84.944 122.99 79.504C122.99 74.064 124.078 69.296 126.254 65.2C128.494 61.04 131.598 57.84 135.566 55.6C139.598 53.36 144.206 52.24 149.39 52.24C154.382 52.24 158.83 53.328 162.734 55.504C166.638 57.68 169.678 60.752 171.854 64.72C174.03 68.624 175.118 73.136 175.118 78.256ZM163.694 74.8C163.63 70.768 162.19 67.536 159.374 65.104C156.558 62.672 153.07 61.456 148.91 61.456C145.134 61.456 141.902 62.672 139.214 65.104C136.526 67.472 134.926 70.704 134.414 74.8H163.694ZM182.24 79.312C182.24 74 183.328 69.296 185.504 65.2C187.744 61.104 190.752 57.936 194.528 55.696C198.368 53.392 202.592 52.24 207.2 52.24C211.36 52.24 214.976 53.072 218.048 54.736C221.184 56.336 223.68 58.352 225.536 60.784V53.104H236.576V106H225.536V98.128C223.68 100.624 221.152 102.704 217.952 104.368C214.752 106.032 211.104 106.864 207.008 106.864C202.464 106.864 198.304 105.712 194.528 103.408C190.752 101.04 187.744 97.776 185.504 93.616C183.328 89.392 182.24 84.624 182.24 79.312ZM225.536 79.504C225.536 75.856 224.768 72.688 223.232 70C221.76 67.312 219.808 65.264 217.376 63.856C214.944 62.448 212.32 61.744 209.504 61.744C206.688 61.744 204.064 62.448 201.632 63.856C199.2 65.2 197.216 67.216 195.68 69.904C194.208 72.528 193.472 75.664 193.472 79.312C193.472 82.96 194.208 86.16 195.68 88.912C197.216 91.664 199.2 93.776 201.632 95.248C204.128 96.656 206.752 97.36 209.504 97.36C212.32 97.36 214.944 96.656 217.376 95.248C219.808 93.84 221.76 91.792 223.232 89.104C224.768 86.352 225.536 83.152 225.536 79.504ZM271.878 79.6L296.262 106H281.478L261.894 83.248V106H250.95V34.96H261.894V76.24L281.094 53.104H296.262L271.878 79.6Z" fill="#0099FF"/>
</svg>
