<svg width="32" height="32" viewBox="0 0 32 32" fill="none" xmlns="http://www.w3.org/2000/svg">
<path d="M16 0C12.8355 0 9.74207 0.938383 7.11088 2.69649C4.4797 4.45459 2.42894 6.95345 1.21793 9.87706C0.00693255 12.8007 -0.309921 16.0177 0.307443 19.1214C0.924806 22.2251 2.44866 25.0761 4.6863 27.3137C6.92394 29.5513 9.77486 31.0752 12.8786 31.6926C15.9823 32.3099 19.1993 31.9931 22.1229 30.7821C25.0466 29.5711 27.5454 27.5203 29.3035 24.8891C31.0616 22.2579 32 19.1645 32 16C31.9955 11.7579 30.3084 7.69085 27.3088 4.69124C24.3091 1.69163 20.2421 0.00447972 16 0ZM7.70462 26.6923C8.59498 25.2998 9.82155 24.1539 11.2713 23.3601C12.721 22.5663 14.3472 22.1502 16 22.1502C17.6528 22.1502 19.279 22.5663 20.7287 23.3601C22.1785 24.1539 23.405 25.2998 24.2954 26.6923C21.9236 28.5369 19.0047 29.5384 16 29.5384C12.9954 29.5384 10.0764 28.5369 7.70462 26.6923ZM11.0769 14.7692C11.0769 13.7955 11.3657 12.8437 11.9066 12.0341C12.4476 11.2245 13.2164 10.5935 14.116 10.2209C15.0156 9.84828 16.0055 9.75079 16.9604 9.94075C17.9154 10.1307 18.7926 10.5996 19.4811 11.2881C20.1696 11.9766 20.6385 12.8538 20.8285 13.8088C21.0184 14.7638 20.9209 15.7536 20.5483 16.6532C20.1757 17.5528 19.5447 18.3217 18.7351 18.8626C17.9255 19.4036 16.9737 19.6923 16 19.6923C14.6943 19.6923 13.4421 19.1736 12.5189 18.2504C11.5956 17.3271 11.0769 16.0749 11.0769 14.7692ZM26.1169 24.9861C24.7443 22.997 22.8141 21.4582 20.5692 20.5631C21.7751 19.6133 22.655 18.3114 23.0867 16.8383C23.5183 15.3652 23.4802 13.7943 22.9776 12.3439C22.475 10.8935 21.5329 9.63582 20.2824 8.74567C19.0318 7.85553 17.535 7.37719 16 7.37719C14.465 7.37719 12.9682 7.85553 11.7176 8.74567C10.4671 9.63582 9.52504 10.8935 9.02245 12.3439C8.51985 13.7943 8.48172 15.3652 8.91335 16.8383C9.34497 18.3114 10.2249 19.6133 11.4308 20.5631C9.18588 21.4582 7.25575 22.997 5.88308 24.9861C4.14857 23.0356 3.01489 20.6253 2.61854 18.0454C2.22219 15.4655 2.58008 12.826 3.64911 10.4448C4.71814 8.06354 6.45273 6.04212 8.64401 4.6239C10.8353 3.20568 13.3898 2.45115 16 2.45115C18.6102 2.45115 21.1647 3.20568 23.356 4.6239C25.5473 6.04212 27.2819 8.06354 28.3509 10.4448C29.4199 12.826 29.7778 15.4655 29.3815 18.0454C28.9851 20.6253 27.8514 23.0356 26.1169 24.9861Z" fill="white"/>
</svg>
