<svg width="52" height="52" viewBox="0 0 52 52" fill="none" xmlns="http://www.w3.org/2000/svg">
<g id="PhUserCircleFill 1" clip-path="url(#clip0_7_171)">
<path id="Vector" d="M37 24C37 26.1756 36.3549 28.3023 35.1462 30.1113C33.9375 31.9202 32.2195 33.3301 30.2095 34.1627C28.1995 34.9952 25.9878 35.2131 23.854 34.7886C21.7202 34.3642 19.7602 33.3166 18.2218 31.7782C16.6835 30.2398 15.6358 28.2798 15.2114 26.146C14.7869 24.0122 15.0048 21.8005 15.8373 19.7905C16.6699 17.7805 18.0798 16.0625 19.8887 14.8538C21.6977 13.6451 23.8244 13 26 13C28.9164 13.0033 31.7123 14.1633 33.7745 16.2255C35.8367 18.2877 36.9967 21.0836 37 24ZM52 26C52 31.1423 50.4751 36.1691 47.6182 40.4448C44.7613 44.7205 40.7007 48.053 35.9498 50.0209C31.1989 51.9887 25.9712 52.5036 20.9277 51.5004C15.8842 50.4972 11.2514 48.0209 7.61524 44.3848C3.97907 40.7486 1.50281 36.1159 0.499594 31.0723C-0.503621 26.0288 0.0112654 20.8011 1.97914 16.0502C3.94702 11.2994 7.27951 7.23871 11.5552 4.38179C15.8309 1.52487 20.8577 0 26 0C32.8934 0.00727955 39.5024 2.74889 44.3767 7.62326C49.2511 12.4976 51.9927 19.1066 52 26ZM48 26C47.9968 23.0388 47.3965 20.1087 46.2349 17.3849C45.0733 14.6611 43.3743 12.1995 41.2395 10.1473C39.1048 8.09519 36.5781 6.49464 33.8105 5.4414C31.043 4.38817 28.0915 3.90388 25.1325 4.0175C13.3575 4.4725 3.96751 14.28 4.00001 26.0625C4.0113 31.4263 5.98957 36.5997 9.56001 40.6025C11.0141 38.4935 12.8611 36.6847 15 35.275C15.1824 35.1546 15.3992 35.0972 15.6172 35.1116C15.8353 35.1261 16.0426 35.2116 16.2075 35.355C18.9255 37.7059 22.3989 38.9996 25.9925 38.9996C29.5861 38.9996 33.0596 37.7059 35.7775 35.355C35.9424 35.2116 36.1497 35.1261 36.3678 35.1116C36.5859 35.0972 36.8027 35.1546 36.985 35.275C39.1266 36.6839 40.9762 38.4928 42.4325 40.6025C46.0206 36.5851 48.0027 31.3865 48 26Z" fill="#0099FF"/>
</g>
<defs>
<clipPath id="clip0_7_171">
<rect width="52" height="52" fill="white"/>
</clipPath>
</defs>
</svg>
