<svg width="52" height="52" viewBox="0 0 52 52" fill="none" xmlns="http://www.w3.org/2000/svg">
<g id="PhUserCircle 1" clip-path="url(#clip0_47_59)">
<path id="Vector" d="M26 0C20.8577 0 15.8309 1.52487 11.5552 4.38179C7.27951 7.23871 3.94702 11.2994 1.97914 16.0502C0.0112654 20.8011 -0.503621 26.0288 0.499594 31.0723C1.50281 36.1159 3.97907 40.7486 7.61524 44.3848C11.2514 48.0209 15.8842 50.4972 20.9277 51.5004C25.9712 52.5036 31.1989 51.9887 35.9498 50.0209C40.7007 48.053 44.7613 44.7205 47.6182 40.4448C50.4751 36.1691 52 31.1423 52 26C51.9927 19.1066 49.2511 12.4976 44.3767 7.62326C39.5024 2.74889 32.8934 0.00727955 26 0ZM12.52 43.375C13.9668 41.1122 15.96 39.25 18.3158 37.9601C20.6716 36.6702 23.3142 35.9941 26 35.9941C28.6858 35.9941 31.3284 36.6702 33.6842 37.9601C36.04 39.25 38.0332 41.1122 39.48 43.375C35.6259 46.3725 30.8826 47.9998 26 47.9998C21.1175 47.9998 16.3742 46.3725 12.52 43.375ZM18 24C18 22.4177 18.4692 20.871 19.3483 19.5554C20.2273 18.2398 21.4767 17.2145 22.9385 16.609C24.4004 16.0035 26.0089 15.845 27.5607 16.1537C29.1126 16.4624 30.538 17.2243 31.6569 18.3431C32.7757 19.462 33.5376 20.8874 33.8463 22.4393C34.155 23.9911 33.9965 25.5997 33.391 27.0615C32.7855 28.5233 31.7602 29.7727 30.4446 30.6518C29.129 31.5308 27.5823 32 26 32C23.8783 32 21.8434 31.1571 20.3432 29.6569C18.8429 28.1566 18 26.1217 18 24ZM42.44 40.6025C40.2094 37.3702 37.073 34.8695 33.425 33.415C35.3845 31.8716 36.8144 29.756 37.5158 27.3622C38.2172 24.9685 38.1553 22.4157 37.3385 20.0589C36.5218 17.702 34.991 15.6582 32.9589 14.2117C30.9267 12.7652 28.4944 11.9879 26 11.9879C23.5057 11.9879 21.0733 12.7652 19.0412 14.2117C17.009 15.6582 15.4782 17.702 14.6615 20.0589C13.8448 22.4157 13.7828 24.9685 14.4842 27.3622C15.1856 29.756 16.6155 31.8716 18.575 33.415C14.9271 34.8695 11.7906 37.3702 9.56001 40.6025C6.74143 37.4329 4.89919 33.5161 4.25512 29.3238C3.61106 25.1314 4.19263 20.8422 5.9298 16.9727C7.66698 13.1033 10.4857 9.81844 14.0465 7.51384C17.6074 5.20924 21.7585 3.98312 26 3.98312C30.2416 3.98312 34.3927 5.20924 37.9535 7.51384C41.5143 9.81844 44.333 13.1033 46.0702 16.9727C47.8074 20.8422 48.389 25.1314 47.7449 29.3238C47.1008 33.5161 45.2586 37.4329 42.44 40.6025Z" fill="#333333"/>
</g>
<defs>
<clipPath id="clip0_47_59">
<rect width="52" height="52" fill="white"/>
</clipPath>
</defs>
</svg>
