<svg width="80" height="80" viewBox="0 0 80 80" fill="none" xmlns="http://www.w3.org/2000/svg">
<path d="M56.9231 36.9231C56.9231 40.2701 55.9306 43.542 54.071 46.325C52.2115 49.108 49.5685 51.2771 46.4762 52.558C43.3839 53.8388 39.9812 54.174 36.6985 53.521C33.4157 52.868 30.4003 51.2562 28.0336 48.8895C25.6669 46.5228 24.0551 43.5074 23.4021 40.2246C22.7491 36.9418 23.0843 33.5392 24.3651 30.4469C25.646 27.3546 27.8151 24.7116 30.5981 22.852C33.381 20.9925 36.6529 20 40 20C44.4867 20.0051 48.7882 21.7897 51.9608 24.9623C55.1334 28.1349 56.918 32.4364 56.9231 36.9231ZM80 40C80 47.9112 77.654 55.6448 73.2588 62.2228C68.8635 68.8008 62.6164 73.9277 55.3073 76.9552C47.9983 79.9827 39.9556 80.7748 32.1964 79.2314C24.4372 77.688 17.3098 73.8784 11.7157 68.2843C6.12164 62.6902 2.31202 55.5628 0.768607 47.8036C-0.774802 40.0444 0.0173314 32.0017 3.04484 24.6927C6.07234 17.3836 11.1992 11.1365 17.7772 6.74121C24.3552 2.34596 32.0888 0 40 0C50.6052 0.0111993 60.7729 4.22907 68.2719 11.7281C75.7709 19.2271 79.9888 29.3948 80 40ZM73.8462 40C73.8412 35.4444 72.9176 30.9365 71.1305 26.746C69.3435 22.5555 66.7297 18.7684 63.4454 15.6113C60.1612 12.4541 56.2739 9.99175 52.0162 8.37139C47.7585 6.75103 43.2177 6.00597 38.6654 6.18077C20.55 6.88077 6.10386 21.9692 6.15386 40.0961C6.17123 48.3482 9.21472 56.3072 14.7077 62.4654C16.9447 59.2208 19.7863 56.438 23.0769 54.2692C23.3575 54.0839 23.691 53.9956 24.0265 54.0179C24.362 54.0401 24.681 54.1716 24.9346 54.3923C29.1161 58.009 34.4599 59.9995 39.9885 59.9995C45.5171 59.9995 50.8609 58.009 55.0423 54.3923C55.296 54.1716 55.6149 54.0401 55.9504 54.0179C56.2859 53.9956 56.6195 54.0839 56.9 54.2692C60.1948 56.4368 63.0404 59.2197 65.2808 62.4654C70.8009 56.2847 73.8503 48.2869 73.8462 40Z" fill="url(#paint0_linear_368_5)"/>
<defs>
<linearGradient id="paint0_linear_368_5" x1="-8.07692" y1="80" x2="80" y2="-1.31245e-06" gradientUnits="userSpaceOnUse">
<stop stop-color="#99D6FF"/>
<stop offset="0.537244" stop-color="#66C2FF"/>
<stop offset="1" stop-color="#0099FF"/>
</linearGradient>
</defs>
</svg>
